<svg id="Layer_1" data-name="Layer 1" xmlns="http://www.w3.org/2000/svg" viewBox="0 0 80.8 80.8"><defs><style>.cls-1{fill:#fff;stroke:#5b06a6;stroke-miterlimit:10;stroke-width:5px;}.cls-2{fill:#5b06a6;}</style></defs><circle class="cls-1" cx="40.4" cy="40.4" r="37.9"/><circle class="cls-2" cx="40.4" cy="55.4" r="6"/><path class="cls-2" d="M42.79,40.88a16,16,0,0,0-13,6.71,2.67,2.67,0,0,0,.62,3.72,2.63,2.63,0,0,0,1.55.5,2.66,2.66,0,0,0,2.17-1.12,10.67,10.67,0,0,1,17.37,0,2.67,2.67,0,1,0,4.34-3.1A16,16,0,0,0,42.79,40.88Z" transform="translate(-2.38 -1.48)"/><path class="cls-2" d="M42.79,30.89a26,26,0,0,0-19.34,8.62,2.67,2.67,0,0,0,4,3.57,20.66,20.66,0,0,1,30.75,0,2.67,2.67,0,0,0,4-3.57A26.05,26.05,0,0,0,42.79,30.89Z" transform="translate(-2.38 -1.48)"/><path class="cls-2" d="M68.47,31.67a36,36,0,0,0-51.37,0,2.67,2.67,0,0,0,3.81,3.74,30.64,30.64,0,0,1,43.76,0,2.67,2.67,0,0,0,3.8-3.74Z" transform="translate(-2.38 -1.48)"/></svg>