<svg id="Layer_1" data-name="Layer 1" xmlns="http://www.w3.org/2000/svg" viewBox="0 0 2490.95 1433.79"><defs><style>.cls-1,.cls-17{fill:#7a0ed9;}.cls-16,.cls-2{fill:#440487;}.cls-2{stroke:#5b06a6;}.cls-12,.cls-14,.cls-15,.cls-2{stroke-miterlimit:10;}.cls-3{font-size:35px;font-family:MyriadPro-Regular, Myriad Pro;}.cls-4{letter-spacing:0em;}.cls-5{letter-spacing:0em;}.cls-6{letter-spacing:0em;}.cls-7{letter-spacing:-0.01em;}.cls-8{letter-spacing:-0.01em;}.cls-9{letter-spacing:-0.02em;}.cls-10{letter-spacing:0.02em;}.cls-11{letter-spacing:0em;}.cls-12,.cls-15{fill:#fff;}.cls-12{stroke:#7f3f98;stroke-width:0.5px;}.cls-13,.cls-14{fill:#f1f2f2;}.cls-14{stroke:#f1f2f2;stroke-width:2px;}.cls-15{stroke:#7a0ed9;}.cls-17{fill-rule:evenodd;}.cls-18{fill:#5b06a6;}</style></defs><rect class="cls-1" x="981.08" width="100" height="100"/><path class="cls-2" d="M450,341.9l28.25-56.7L507,342.37V288.32h6.61v59H502.05l-23.82-48.19-23.52,48.19H443.37v-59H450Z" transform="translate(981.08)"/><path class="cls-2" d="M546.64,288.32h6.71v59h-6.71Z" transform="translate(981.08)"/><path class="cls-2" d="M611.84,312.79l13.8-18.52h-39.5v-5.95h52.07L620,312.79Zm-5.1,6.9h8l-16,21.64h39.31v5.95h-52Z" transform="translate(981.08)"/><path class="cls-2" d="M671.68,317.9a22.29,22.29,0,0,0,1,6.61,24.49,24.49,0,0,0,2.79,6c1.2,1.86-4.46,5.31-5.81,3a32.5,32.5,0,0,1-3.16-7.47,29.56,29.56,0,0,1-1.14-8.22,28.78,28.78,0,0,1,2.36-11.57,29.81,29.81,0,0,1,15.88-15.83,30.26,30.26,0,0,1,23.43,0,29.81,29.81,0,0,1,15.88,15.83,28.78,28.78,0,0,1,2.36,11.57,29.47,29.47,0,0,1-4.54,15.83c-1.45,2.3-6.77-1.26-5.57-3.12a25.77,25.77,0,0,0,2.83-6,21.1,21.1,0,0,0,1-6.61,22,22,0,0,0-1.89-8.93,24.35,24.35,0,0,0-5.1-7.51,25.15,25.15,0,0,0-7.51-5.15,22,22,0,0,0-9.12-1.94,22.33,22.33,0,0,0-9.17,1.94,25.13,25.13,0,0,0-7.56,5.15,24.35,24.35,0,0,0-5.1,7.51A22,22,0,0,0,671.68,317.9Zm8.72-.89a14,14,0,0,0,.63,4.18,15.16,15.16,0,0,0,1.76,3.78c.75,1.17-2.81,3.35-3.67,1.88a20.92,20.92,0,0,1-2-4.71,19.07,19.07,0,0,1-.71-5.19,18.19,18.19,0,0,1,1.49-7.3,18.76,18.76,0,0,1,10-10,19.1,19.1,0,0,1,14.79,0,18.76,18.76,0,0,1,10,10,18.19,18.19,0,0,1,1.49,7.3,18.56,18.56,0,0,1-2.86,10c-.92,1.45-4.27-.8-3.52-2a16,16,0,0,0,1.79-3.78,13.44,13.44,0,0,0,.66-4.18,13.8,13.8,0,0,0-1.2-5.63,15.27,15.27,0,0,0-3.21-4.74,16.18,16.18,0,0,0-4.74-3.25,14,14,0,0,0-5.76-1.22,14.14,14.14,0,0,0-5.78,1.22,15.81,15.81,0,0,0-4.77,3.25,15.27,15.27,0,0,0-3.21,4.74A13.8,13.8,0,0,0,680.4,317Zm6.44-.48a7.92,7.92,0,0,0,.36,2.37,8.43,8.43,0,0,0,1,2.15c.42.66-1.6,1.9-2.09,1.06a11.71,11.71,0,0,1-1.13-2.67,10.72,10.72,0,0,1-.41-2.95,10.36,10.36,0,0,1,.85-4.14A10.93,10.93,0,0,1,687.7,309a10.74,10.74,0,0,1,3.41-2.28,10.78,10.78,0,0,1,8.39,0,10.74,10.74,0,0,1,3.41,2.28,10.93,10.93,0,0,1,2.28,3.39,10.58,10.58,0,0,1,.42,7.14,10.61,10.61,0,0,1-1.2,2.68c-.52.82-2.42-.46-2-1.12a9.22,9.22,0,0,0,1-2.15,7.62,7.62,0,0,0,.37-2.37,7.88,7.88,0,0,0-.67-3.2,9,9,0,0,0-1.83-2.69,9.21,9.21,0,0,0-2.69-1.85,8.12,8.12,0,0,0-6.55,0,8.92,8.92,0,0,0-2.71,1.85,8.66,8.66,0,0,0-1.83,2.69A7.9,7.9,0,0,0,686.84,316.53Zm16.06,26.1a7.6,7.6,0,1,1-7.59-7.59A7.59,7.59,0,0,1,702.9,342.63Z" transform="translate(981.08)"/><path class="cls-2" d="M761,347.28h-6.61v-59h11.05l37.33,53.39V288.32h6.61v59H799L761,293.8Z" transform="translate(981.08)"/><path class="cls-2" d="M842.49,288.32h44.89v5.95H849.11v47.06h38.27v5.95H842.49Zm44.13,34.11H858.37v-5.95h28.25Z" transform="translate(981.08)"/><text class="cls-3" transform="translate(621.62 283.16)">Da<tspan class="cls-4" x="40.18" y="0">r</tspan><tspan x="51.76" y="0">k pu</tspan><tspan class="cls-5" x="114.8" y="0">r</tspan><tspan x="126.38" y="0">ple</tspan><tspan x="0" y="42">700• #5B06A6</tspan><tspan class="cls-5" x="0" y="84">D</tspan><tspan x="23.45" y="84">esc</tspan><tspan class="cls-5" x="70.52" y="84">r</tspan><tspan class="cls-6" x="82.11" y="84">ibe use cases </tspan><tspan class="cls-7" x="278.49" y="84">f</tspan><tspan x="288.26" y="84">or this </tspan><tspan class="cls-8" x="386.81" y="84">c</tspan><tspan x="402.28" y="84">olor</tspan><tspan class="cls-9"><tspan x="0" y="126">P</tspan><tspan class="cls-4" x="18.06" y="126">r</tspan><tspan class="cls-6" x="29.64" y="126">ima</tspan><tspan class="cls-10" x="83.89" y="126">r</tspan><tspan class="cls-6" x="96.21" y="126">y pu</tspan><tspan class="cls-4" x="159.32" y="126">r</tspan><tspan class="cls-6" x="170.9" y="126">ple</tspan></tspan><tspan x="0" y="168">500• #v</tspan><tspan class="cls-5" x="0" y="210">D</tspan><tspan x="23.45" y="210">esc</tspan><tspan class="cls-5" x="70.52" y="210">r</tspan><tspan class="cls-6" x="82.11" y="210">ibe use cases </tspan><tspan class="cls-7" x="278.49" y="210">f</tspan><tspan x="288.26" y="210">or this </tspan><tspan class="cls-8" x="386.81" y="210">c</tspan><tspan x="402.28" y="210">olor</tspan><tspan x="0" y="252">Lig</tspan><tspan class="cls-11" x="44.27" y="252">h</tspan><tspan x="63.56" y="252" xml:space="preserve">t  pu</tspan><tspan class="cls-5" x="129.18" y="252">r</tspan><tspan class="cls-6" x="140.77" y="252">ple</tspan><tspan x="0" y="294">300.• #9B3DEF</tspan><tspan class="cls-5" x="0" y="336">D</tspan><tspan x="23.45" y="336">esc</tspan><tspan class="cls-5" x="70.52" y="336">r</tspan><tspan class="cls-6" x="82.11" y="336">ibe use cases </tspan><tspan class="cls-7" x="278.49" y="336">f</tspan><tspan x="288.26" y="336">or this </tspan><tspan class="cls-8" x="386.81" y="336">c</tspan><tspan x="402.28" y="336">olor</tspan></text><path class="cls-12" d="M20.82,50A26.43,26.43,0,0,0,22,57.85,28.44,28.44,0,0,0,25.29,65c1.42,2.2-5.28,6.28-6.88,3.52a38.92,38.92,0,0,1-3.75-8.84,35.39,35.39,0,0,1-1.34-9.73,33.92,33.92,0,0,1,2.8-13.7A35.26,35.26,0,0,1,34.91,17.47a35.87,35.87,0,0,1,27.74,0A35.26,35.26,0,0,1,81.44,36.21a33.92,33.92,0,0,1,2.8,13.7,35.07,35.07,0,0,1-5.37,18.74c-1.72,2.72-8-1.49-6.6-3.69a30.1,30.1,0,0,0,3.36-7.11A25.24,25.24,0,0,0,76.86,50a26.06,26.06,0,0,0-2.24-10.57,29,29,0,0,0-6-8.89,29.92,29.92,0,0,0-8.89-6.1,26.14,26.14,0,0,0-10.8-2.29A26.51,26.51,0,0,0,38,24.46a29.7,29.7,0,0,0-8.95,6.1,29,29,0,0,0-6,8.89A26.05,26.05,0,0,0,20.82,50Zm10.32-1a16.8,16.8,0,0,0,.74,4.94A18.11,18.11,0,0,0,34,58.4c.9,1.39-3.33,4-4.34,2.22a24.29,24.29,0,0,1-2.36-5.57,22,22,0,0,1-.85-6.14,21.42,21.42,0,0,1,1.77-8.65A22.24,22.24,0,0,1,40,28.45a22.51,22.51,0,0,1,17.5,0A22.24,22.24,0,0,1,69.38,40.26a21.42,21.42,0,0,1,1.77,8.65,22,22,0,0,1-3.39,11.82c-1.08,1.72-5.06-.94-4.16-2.33a19.38,19.38,0,0,0,2.12-4.48A16.19,16.19,0,0,0,66.49,49a16.4,16.4,0,0,0-1.41-6.67,18.21,18.21,0,0,0-3.81-5.61,18.65,18.65,0,0,0-5.61-3.84,16.3,16.3,0,0,0-6.81-1.45A16.5,16.5,0,0,0,42,32.86a18.46,18.46,0,0,0-5.65,3.84,18.21,18.21,0,0,0-3.81,5.61A16.4,16.4,0,0,0,31.14,49Zm7.62-.58a9.47,9.47,0,0,0,.42,2.81,10.33,10.33,0,0,0,1.18,2.54c.51.79-1.89,2.25-2.46,1.27a14.11,14.11,0,0,1-1.34-3.17,12.62,12.62,0,0,1-.48-3.49,12.18,12.18,0,0,1,1-4.91,12.65,12.65,0,0,1,6.73-6.71,12.85,12.85,0,0,1,9.94,0,12.65,12.65,0,0,1,6.73,6.71,12.18,12.18,0,0,1,1,4.91,12.59,12.59,0,0,1-1.92,6.72c-.61,1-2.87-.54-2.36-1.33a11.17,11.17,0,0,0,1.2-2.54,9.17,9.17,0,0,0,.44-2.81,9.33,9.33,0,0,0-.8-3.78,10.41,10.41,0,0,0-5.35-5.37,9.31,9.31,0,0,0-3.87-.83,9.44,9.44,0,0,0-3.89.83,10.36,10.36,0,0,0-5.37,5.37A9.33,9.33,0,0,0,38.76,48.4Zm19,30.9a9,9,0,1,1-9-9A9,9,0,0,1,57.77,79.3Z" transform="translate(981.08)"/><rect class="cls-1" x="1124.95" y="665.79" width="1366" height="768"/><path class="cls-13" d="M332.93,1080.73l75.7-150.85,76.81,152.52V943.75h26.62v173.31H473L408.63,987l-64.06,130H306V943.75h26.9Z" transform="translate(981.08)"/><path class="cls-13" d="M548.11,1117.06V944h26.06v173Z" transform="translate(981.08)"/><path class="cls-13" d="M668.18,1031.93h32.16l-44.64,60.45H761.63v24.68H605.23Zm8.59-11.37,37.72-51.86H609.11V944h156.4l-56.29,76.54Z" transform="translate(981.08)"/><path class="cls-13" d="M1007.87,975.91v141.15H981.8V944h36.6l98.17,140.6V944h26.62v173H1108Z" transform="translate(981.08)"/><path class="cls-13" d="M1178.68,944H1310.4V968.7H1204.75v123.68H1310.4v24.68H1178.68Zm129.78,103.44h-86v-24.68h86Z" transform="translate(981.08)"/><path class="cls-14" d="M792.31,1025.21a65.46,65.46,0,0,0,2.92,19.42,71.09,71.09,0,0,0,8.18,17.62c3.51,5.46-13.08,15.58-17.06,8.74a95.63,95.63,0,0,1-9.29-21.92,87.4,87.4,0,0,1-3.33-24.14,84.37,84.37,0,0,1,6.93-34,87.55,87.55,0,0,1,46.61-46.47,88.73,88.73,0,0,1,68.8,0A87.46,87.46,0,0,1,942.68,991a84.37,84.37,0,0,1,6.94,34,86.82,86.82,0,0,1-13.32,46.47c-4.26,6.76-19.88-3.69-16.37-9.15a75.33,75.33,0,0,0,8.33-17.62,62.78,62.78,0,0,0,3-19.42A64.51,64.51,0,0,0,925.76,999a71.85,71.85,0,0,0-15-22,73.72,73.72,0,0,0-22.06-15.12A64.47,64.47,0,0,0,862,956.13,65.38,65.38,0,0,0,835,961.82a73,73,0,0,0-22.19,15.12,71.53,71.53,0,0,0-15,22A64.51,64.51,0,0,0,792.31,1025.21Zm25.61-2.59a41.14,41.14,0,0,0,1.84,12.25,44.47,44.47,0,0,0,5.16,11.11c2.21,3.44-8.26,9.83-10.76,5.51a60.24,60.24,0,0,1-5.87-13.82,55.18,55.18,0,0,1-2.1-15.23,53.19,53.19,0,0,1,4.38-21.44A55.15,55.15,0,0,1,840,971.69a56.06,56.06,0,0,1,43.4,0,55.15,55.15,0,0,1,29.4,29.31,53.19,53.19,0,0,1,4.38,21.44,54.88,54.88,0,0,1-8.4,29.32c-2.69,4.26-12.54-2.34-10.33-5.78a47,47,0,0,0,5.25-11.11,39.37,39.37,0,0,0,1.93-12.25,40.74,40.74,0,0,0-3.5-16.54,45.31,45.31,0,0,0-9.45-13.91,46.52,46.52,0,0,0-13.91-9.54A40.69,40.69,0,0,0,861.85,979a41.3,41.3,0,0,0-17,3.59,46.07,46.07,0,0,0-14,9.54,45,45,0,0,0-9.45,13.91A40.74,40.74,0,0,0,817.92,1022.62Zm18.9-1.43a23.29,23.29,0,0,0,1,7,25.2,25.2,0,0,0,2.93,6.31c1.26,2-4.69,5.58-6.11,3.13a33.89,33.89,0,0,1-3.33-7.85,31.16,31.16,0,0,1-1.2-8.65,30.11,30.11,0,0,1,2.49-12.17,31.35,31.35,0,0,1,16.7-16.65,31.75,31.75,0,0,1,24.65,0A31.63,31.63,0,0,1,884,999a32,32,0,0,1,6.71,9.94,30.27,30.27,0,0,1,2.48,12.17,31.06,31.06,0,0,1-4.77,16.65c-1.53,2.42-7.12-1.32-5.86-3.28a27.24,27.24,0,0,0,3-6.31,22.41,22.41,0,0,0,1.09-7,23,23,0,0,0-2-9.39,25.5,25.5,0,0,0-5.36-7.9,26.37,26.37,0,0,0-7.91-5.42,23,23,0,0,0-9.59-2,23.4,23.4,0,0,0-9.64,2,26.06,26.06,0,0,0-8,5.42,25.53,25.53,0,0,0-5.37,7.9A23,23,0,0,0,836.82,1021.19ZM884,1097.82a22.29,22.29,0,1,1-22.29-22.28A22.29,22.29,0,0,1,884,1097.82Z" transform="translate(981.08)"/><path class="cls-1" d="M-954.19,1153.56l75.71-150.85,76.81,152.51V1016.57H-775v173.32h-39.1l-64.33-130.06-64.06,130.06h-38.54V1016.57h26.89Z" transform="translate(981.08)"/><path class="cls-1" d="M-739,1189.89v-173h26.06v173Z" transform="translate(981.08)"/><path class="cls-1" d="M-618.93,1104.76h32.16l-44.64,60.45h105.93v24.68h-156.4Zm8.59-11.37,37.71-51.86H-678v-24.68h156.4l-56.29,76.54Z" transform="translate(981.08)"/><path class="cls-1" d="M-279.24,1048.74v141.15h-26.07v-173h36.6l98.17,140.59V1016.85h26.62v173h-35.22Z" transform="translate(981.08)"/><path class="cls-1" d="M-108.43,1016.85H23.29v24.68H-82.36v123.68H23.29v24.68H-108.43ZM21.35,1120.28h-86v-24.67h86Z" transform="translate(981.08)"/><path class="cls-1" d="M-494.8,1098a65.19,65.19,0,0,0,2.92,19.42,71.26,71.26,0,0,0,8.18,17.62c3.51,5.45-13.09,15.58-17.06,8.74A95.37,95.37,0,0,1-510,1121.9a87.46,87.46,0,0,1-3.33-24.14,84.33,84.33,0,0,1,6.93-34A88.83,88.83,0,0,1-487.72,1036a88.42,88.42,0,0,1,27.88-18.72,86,86,0,0,1,34.4-6.94,86,86,0,0,1,34.4,6.94A88.42,88.42,0,0,1-363.16,1036a89.17,89.17,0,0,1,18.73,27.75,84.34,84.34,0,0,1,6.94,34,86.6,86.6,0,0,1-3.47,24.55,87.14,87.14,0,0,1-9.85,21.92c-4.26,6.75-19.88-3.7-16.37-9.15a75.09,75.09,0,0,0,8.32-17.62A62.54,62.54,0,0,0-355.8,1098a64.68,64.68,0,0,0-5.55-26.22,71.85,71.85,0,0,0-15-22,73.72,73.72,0,0,0-22.06-15.12,64.47,64.47,0,0,0-26.77-5.69,65.38,65.38,0,0,0-26.91,5.69,73.13,73.13,0,0,0-22.2,15.12,71.67,71.67,0,0,0-15,22A64.51,64.51,0,0,0-494.8,1098Zm25.61-2.59a41.14,41.14,0,0,0,1.84,12.25,44.63,44.63,0,0,0,5.16,11.11c2.21,3.44-8.26,9.83-10.76,5.51a60.24,60.24,0,0,1-5.87-13.82,55.18,55.18,0,0,1-2.1-15.23,53.16,53.16,0,0,1,4.38-21.44,56,56,0,0,1,11.81-17.5,55.86,55.86,0,0,1,17.59-11.81,54.16,54.16,0,0,1,21.7-4.38,54.19,54.19,0,0,1,21.7,4.38,55.86,55.86,0,0,1,17.59,11.81,56,56,0,0,1,11.81,17.5,53.16,53.16,0,0,1,4.38,21.44,54.55,54.55,0,0,1-2.19,15.49,54.77,54.77,0,0,1-6.21,13.82c-2.69,4.26-12.55-2.33-10.33-5.77a47.15,47.15,0,0,0,5.25-11.11,39.37,39.37,0,0,0,1.93-12.25,40.74,40.74,0,0,0-3.5-16.54,45.47,45.47,0,0,0-9.45-13.92,46.6,46.6,0,0,0-13.92-9.53,40.64,40.64,0,0,0-16.88-3.59,41.3,41.3,0,0,0-17,3.59,46.1,46.1,0,0,0-14,9.53,45.12,45.12,0,0,0-9.45,13.92A40.57,40.57,0,0,0-469.19,1095.45Zm18.9-1.43a23.39,23.39,0,0,0,1.05,7,25.36,25.36,0,0,0,2.93,6.31c1.26,2-4.69,5.58-6.12,3.13a34.3,34.3,0,0,1-3.32-7.85,31.21,31.21,0,0,1-1.2-8.65,30.16,30.16,0,0,1,2.49-12.18,31.75,31.75,0,0,1,6.71-9.94,31.74,31.74,0,0,1,10-6.71,30.89,30.89,0,0,1,12.32-2.48,31,31,0,0,1,12.33,2.48,32,32,0,0,1,10,6.71,31.89,31.89,0,0,1,6.7,9.94,30.16,30.16,0,0,1,2.49,12.18,31,31,0,0,1-1.24,8.8,31.44,31.44,0,0,1-3.53,7.85c-1.53,2.42-7.13-1.33-5.87-3.28a27.06,27.06,0,0,0,3-6.31,22.8,22.8,0,0,0,1.09-7,23,23,0,0,0-2-9.39,25.52,25.52,0,0,0-5.37-7.91,26.35,26.35,0,0,0-7.9-5.41,23,23,0,0,0-9.59-2,23.4,23.4,0,0,0-9.64,2,26.21,26.21,0,0,0-7.95,5.41,25.52,25.52,0,0,0-5.37,7.91A23,23,0,0,0-450.29,1094Zm47.14,76.63a22.29,22.29,0,0,1-22.29,22.29,22.29,22.29,0,0,1-22.29-22.29,22.29,22.29,0,0,1,22.29-22.29A22.29,22.29,0,0,1-403.15,1170.65Z" transform="translate(981.08)"/><path id="Path_0" data-name="Path 0" class="cls-1" d="M504.34,126.58a1.49,1.49,0,0,0-.51.22,2.39,2.39,0,0,0-.35.36c-.15.2-.16.35-.18,2.79s0,2.58.16,2.89a1.6,1.6,0,0,0,.45.48l.27.18c14.21,0,16.66,0,16.89-.05a1.45,1.45,0,0,0,.55-.34,1.6,1.6,0,0,0,.35-.59,18.62,18.62,0,0,0,.06-2.7c0-2.18,0-2.36-.18-2.61a1.6,1.6,0,0,0-.35-.41,1.54,1.54,0,0,0-.55-.22c-.2,0-3.89-.07-8.33-.06S504.51,126.55,504.34,126.58Zm21.26,0a1.49,1.49,0,0,0-.51.22,1.6,1.6,0,0,0-.35.41c-.15.25-.16.43-.18,2.61a18.62,18.62,0,0,0,.06,2.7,1.6,1.6,0,0,0,.35.59,1.45,1.45,0,0,0,.55.34c.23.06,2.68.08,8.6.06h8.28a1.86,1.86,0,0,0,.73-.68c.17-.33.17-.38.16-2.9s0-2.56-.19-2.77a2.4,2.4,0,0,0-.35-.36,1.6,1.6,0,0,0-.54-.21c-.2,0-3.89-.07-8.33-.06S525.77,126.55,525.6,126.58Zm-21.38,19.08a1.3,1.3,0,0,0-.53.32,1.64,1.64,0,0,0-.34.53,25.7,25.7,0,0,0-.05,2.75c0,2.38,0,2.49.19,2.7a3,3,0,0,0,.35.36,1.79,1.79,0,0,0,.5.21c.19,0,3.58.08,8.32.08s8.14,0,8.33-.08a1.71,1.71,0,0,0,.51-.22,1.86,1.86,0,0,0,.35-.42c.15-.25.15-.43.18-2.61a18.44,18.44,0,0,0-.06-2.69,1.64,1.64,0,0,0-.35-.6,1.55,1.55,0,0,0-.55-.33c-.23-.07-2.65-.09-8.45-.08-4.47,0-8.25,0-8.4.08Zm21.22,0a1.69,1.69,0,0,0-.53.35,1.55,1.55,0,0,0-.3.57,22,22,0,0,0-.05,2.67c0,2.18,0,2.36.18,2.61a1.86,1.86,0,0,0,.35.42,1.71,1.71,0,0,0,.51.22c.19,0,3.58.08,8.32.08s8.14,0,8.33-.08a1.79,1.79,0,0,0,.5-.21,3,3,0,0,0,.35-.36c.16-.21.16-.32.19-2.78a19.66,19.66,0,0,0-.07-2.75,1.4,1.4,0,0,0-.32-.45,1.51,1.51,0,0,0-.57-.33c-.19-.05-3.51-.07-8.45-.07-6.8,0-8.18,0-8.44.11Zm-21-9.58a4.13,4.13,0,0,0-.42.14,2.35,2.35,0,0,0-.39.39l-.21.28c0,3.89,0,5,0,5.17a1.23,1.23,0,0,0,.35.57,1.86,1.86,0,0,0,.61.34,30.22,30.22,0,0,0,3.19.05c2.72,0,2.87,0,3.13-.18a1.67,1.67,0,0,0,.45-.43c.18-.27.18-.29.18-2.89s0-2.62-.18-2.88a1.53,1.53,0,0,0-.45-.43c-.26-.16-.4-.17-3.17-.18-1.59,0-3,0-3.12.05Zm10.55,0a3.26,3.26,0,0,0-.41.14,1.78,1.78,0,0,0-.39.39l-.22.28c0,3.89,0,5,0,5.17a1.18,1.18,0,0,0,.36.57,1.76,1.76,0,0,0,.57.33c.18,0,3.27.08,8.38.08s8.2,0,8.39-.08a1.87,1.87,0,0,0,.57-.33,1.26,1.26,0,0,0,.36-.57,26.38,26.38,0,0,0,0-2.74l0-2.43a2.4,2.4,0,0,0-.68-.7c-.24-.14-.81-.15-8.5-.16C518.92,136.06,515.1,136.07,515,136.11Zm21.26,0a1.57,1.57,0,0,0-.45.18,1.26,1.26,0,0,0-.37.39c-.15.24-.16.4-.16,2.87s0,2.62.17,2.89a1.87,1.87,0,0,0,.46.43c.26.15.41.16,3.12.18a30.22,30.22,0,0,0,3.19-.05,1.76,1.76,0,0,0,.61-.34,1.26,1.26,0,0,0,.36-.57,26.38,26.38,0,0,0,.05-2.74l0-2.43a2.69,2.69,0,0,0-.68-.7c-.24-.13-.57-.15-3.15-.16C537.76,136.05,536.35,136.07,536.23,136.11Zm-32,19.08a1.21,1.21,0,0,0-.53.39,1.41,1.41,0,0,0-.31.64c0,.18,0,1.39,0,2.69l0,2.35a3,3,0,0,0,.68.71c.24.12.56.13,3.32.13h3a1.93,1.93,0,0,0,.75-.69c.13-.25.15-.57.15-2.84,0-2.54,0-2.56-.18-2.83a1.67,1.67,0,0,0-.45-.43c-.27-.16-.4-.16-3.24-.18C505.82,155.12,504.38,155.15,504.23,155.19Zm10.55,0a1.09,1.09,0,0,0-.53.39,1.5,1.5,0,0,0-.3.57c0,.13,0,1.34,0,2.68l0,2.43a3,3,0,0,0,.68.71c.25.12.81.13,8.66.13s8.42,0,8.66-.13a1.87,1.87,0,0,0,.47-.43l.21-.28c0-3.77,0-5,0-5.11a1.58,1.58,0,0,0-.9-1c-.17,0-3.64-.07-8.49-.07C518.61,155.11,514.93,155.15,514.78,155.19Zm21.29,0a1.64,1.64,0,0,0-.46.25,1.37,1.37,0,0,0-.25.35,12.38,12.38,0,0,0-.11,2.75c0,2.26,0,2.58.14,2.83a1.46,1.46,0,0,0,.44.49l.31.2c5.81,0,6.13,0,6.37-.13a2,2,0,0,0,.46-.43l.22-.28c0-3.65,0-4.86,0-5a1.13,1.13,0,0,0-.33-.65,1.53,1.53,0,0,0-.57-.39c-.15,0-1.54-.07-3.09-.07a15,15,0,0,0-3.13.12Z" transform="translate(981.08)"/><circle class="cls-15" cx="1523.73" cy="126.51" r="8.72"/><path class="cls-1" d="M536.65,126.92h12a.6.6,0,0,0,0-1.2h-12a.6.6,0,0,0,0,1.2Z" transform="translate(981.08)"/><path class="cls-1" d="M542.05,120v12.63a.6.6,0,0,0,1.2,0V120a.6.6,0,0,0-1.2,0Z" transform="translate(981.08)"/><path id="Path_0-2" data-name="Path 0" class="cls-1" d="M559,126.19a1.49,1.49,0,0,0-.51.22,3,3,0,0,0-.35.36c-.15.2-.15.35-.18,2.79s0,2.58.16,2.89a1.77,1.77,0,0,0,.45.49l.28.17c14.2,0,16.65,0,16.88-.05a1.45,1.45,0,0,0,.55-.34,1.52,1.52,0,0,0,.35-.59,18.62,18.62,0,0,0,.06-2.7c0-2.18,0-2.36-.18-2.61a1.6,1.6,0,0,0-.35-.41,1.47,1.47,0,0,0-.55-.22c-.19,0-3.88-.07-8.32-.06S559.13,126.16,559,126.19Zm21.26,0a1.49,1.49,0,0,0-.51.22,1.6,1.6,0,0,0-.35.41c-.15.25-.15.43-.18,2.61a18.62,18.62,0,0,0,.06,2.7,1.52,1.52,0,0,0,.35.59,1.45,1.45,0,0,0,.55.34c.23.06,2.68.08,8.6.06H597a2,2,0,0,0,.72-.67c.17-.34.17-.39.16-2.9s0-2.57-.19-2.78a2.4,2.4,0,0,0-.35-.36,1.52,1.52,0,0,0-.54-.21c-.19,0-3.88-.07-8.32-.06S580.39,126.16,580.22,126.19Zm-21.38,19.08a1.37,1.37,0,0,0-.53.32,1.45,1.45,0,0,0-.33.53,24.29,24.29,0,0,0-.06,2.75c0,2.39,0,2.49.19,2.7a2.4,2.4,0,0,0,.35.36,1.54,1.54,0,0,0,.5.21c.19.05,3.58.08,8.33.08s8.13,0,8.32-.08a1.71,1.71,0,0,0,.51-.22,1.79,1.79,0,0,0,.35-.41c.15-.25.16-.43.18-2.61a18.62,18.62,0,0,0-.06-2.7,1.52,1.52,0,0,0-.35-.59,1.45,1.45,0,0,0-.55-.34c-.23-.06-2.65-.09-8.44-.08-4.47,0-8.26,0-8.41.08Zm21.23,0a1.24,1.24,0,0,0-.83.92,21,21,0,0,0-.06,2.68c0,2.18,0,2.36.18,2.61a1.79,1.79,0,0,0,.35.41,1.71,1.71,0,0,0,.51.22c.19.05,3.58.08,8.33.08s8.13,0,8.32-.08a1.54,1.54,0,0,0,.5-.21,2.4,2.4,0,0,0,.35-.36c.16-.21.17-.31.19-2.78a22.92,22.92,0,0,0-.06-2.75,1.64,1.64,0,0,0-.33-.45,1.51,1.51,0,0,0-.57-.33c-.19,0-3.51-.07-8.44-.07-6.81,0-8.19,0-8.44.11Zm-21-9.58a2.19,2.19,0,0,0-.41.15,1.7,1.7,0,0,0-.4.38l-.21.28c0,3.89,0,5,0,5.18a1.27,1.27,0,0,0,.36.57,1.91,1.91,0,0,0,.61.33,28.69,28.69,0,0,0,3.19.06c2.71,0,2.86,0,3.12-.19a1.87,1.87,0,0,0,.46-.43c.17-.27.17-.29.17-2.89s0-2.61-.17-2.88a1.87,1.87,0,0,0-.46-.43c-.26-.16-.4-.16-3.16-.18-1.6,0-3,0-3.13.05Zm10.55,0a1.86,1.86,0,0,0-.4.15,1.39,1.39,0,0,0-.4.38l-.21.28c0,3.89,0,5,0,5.18a1.37,1.37,0,0,0,.36.57,1.67,1.67,0,0,0,.58.32c.18.05,3.26.08,8.38.08s8.19,0,8.38-.08a1.72,1.72,0,0,0,.57-.32,1.37,1.37,0,0,0,.36-.57,23.87,23.87,0,0,0,0-2.75l0-2.43a2.69,2.69,0,0,0-.68-.7c-.25-.14-.82-.14-8.51-.16C573.54,135.67,569.72,135.69,569.59,135.72Zm21.26,0a1.45,1.45,0,0,0-.45.19,1.39,1.39,0,0,0-.37.39c-.15.23-.16.39-.16,2.86s0,2.62.18,2.89a1.67,1.67,0,0,0,.45.43c.26.16.41.16,3.13.19a28.69,28.69,0,0,0,3.19-.06,2,2,0,0,0,.6-.33,1.27,1.27,0,0,0,.36-.57,23.87,23.87,0,0,0,.05-2.75l0-2.43a2.69,2.69,0,0,0-.68-.7c-.24-.13-.57-.14-3.15-.16C592.38,135.66,591,135.69,590.85,135.72Zm-32,19.09a1.1,1.1,0,0,0-.53.38,1.37,1.37,0,0,0-.3.65c0,.18,0,1.38,0,2.68l0,2.35a3,3,0,0,0,.68.71c.24.12.56.13,3.32.13h3.05a2.11,2.11,0,0,0,.75-.68c.12-.26.14-.58.14-2.85,0-2.54,0-2.56-.17-2.83a1.87,1.87,0,0,0-.46-.43c-.26-.15-.4-.16-3.24-.18C560.45,154.73,559,154.77,558.85,154.81Zm10.55,0a1,1,0,0,0-.53.38,1.5,1.5,0,0,0-.3.57c0,.13,0,1.34,0,2.68l0,2.43a2.65,2.65,0,0,0,.68.71c.24.13.8.13,8.66.13s8.41,0,8.65-.13a1.87,1.87,0,0,0,.47-.43l.22-.28c0-3.77,0-5,0-5.11a1.5,1.5,0,0,0-.34-.58,1.54,1.54,0,0,0-.56-.39c-.17,0-3.64-.07-8.48-.06C573.23,154.73,569.55,154.77,569.4,154.81Zm21.3,0a2.22,2.22,0,0,0-.47.25,1.86,1.86,0,0,0-.25.36,12.23,12.23,0,0,0-.11,2.75c0,2.26,0,2.57.15,2.83a1.49,1.49,0,0,0,.43.48l.32.2c5.8,0,6.12,0,6.36-.13a2.29,2.29,0,0,0,.47-.43l.21-.28c0-3.65,0-4.85,0-5a1.24,1.24,0,0,0-.34-.66,1.57,1.57,0,0,0-.57-.39c-.15,0-1.54-.07-3.09-.07a15.84,15.84,0,0,0-3.12.12Z" transform="translate(981.08)"/><circle class="cls-15" cx="1578.35" cy="126.13" r="8.72"/><path class="cls-1" d="M591.27,126.54h12a.6.6,0,0,0,0-1.2h-12a.6.6,0,0,0,0,1.2Z" transform="translate(981.08)"/><path class="cls-1" d="M503.11,176.57a1.71,1.71,0,0,0-.51.22,3,3,0,0,0-.35.36c-.15.2-.15.35-.18,2.79s0,2.58.16,2.89a1.64,1.64,0,0,0,.45.49l.28.17c14.2,0,16.65,0,16.88-.05a1.42,1.42,0,0,0,.55-.33,1.64,1.64,0,0,0,.35-.6,18.44,18.44,0,0,0,.06-2.69c0-2.18,0-2.36-.18-2.61a1.16,1.16,0,0,0-.9-.64c-.19,0-3.88-.07-8.32-.06S503.28,176.54,503.11,176.57Z" transform="translate(981.08)"/><path class="cls-1" d="M524.37,176.57a1.71,1.71,0,0,0-.51.22,1.66,1.66,0,0,0-.35.42c-.15.25-.15.43-.18,2.61a18.44,18.44,0,0,0,.06,2.69,1.64,1.64,0,0,0,.35.6,1.42,1.42,0,0,0,.55.33c.23.07,2.68.08,8.6.07l8.29,0a1.88,1.88,0,0,0,.72-.67c.18-.34.18-.38.16-2.9s0-2.57-.19-2.78a3,3,0,0,0-.35-.36,1.74,1.74,0,0,0-.54-.21c-.19,0-3.88-.07-8.32-.06S524.54,176.54,524.37,176.57Z" transform="translate(981.08)"/><path class="cls-1" d="M503,195.65a1.37,1.37,0,0,0-.53.32,1.54,1.54,0,0,0-.33.53,24.53,24.53,0,0,0-.06,2.76c0,2.38,0,2.48.19,2.69a2.4,2.4,0,0,0,.35.36,1.54,1.54,0,0,0,.5.21c.19,0,3.58.08,8.33.08s8.13,0,8.32-.08a1.71,1.71,0,0,0,.51-.22,1.6,1.6,0,0,0,.35-.41c.15-.25.16-.43.18-2.61a18.62,18.62,0,0,0-.06-2.7,1.6,1.6,0,0,0-.35-.59,1.74,1.74,0,0,0-.55-.34c-.23-.06-2.65-.08-8.44-.08-4.47,0-8.26,0-8.41.08Z" transform="translate(981.08)"/><path class="cls-1" d="M524.22,195.68a1.65,1.65,0,0,0-.54.36,1.46,1.46,0,0,0-.29.57,20.81,20.81,0,0,0-.06,2.67c0,2.18,0,2.36.18,2.61a1.6,1.6,0,0,0,.35.41,1.71,1.71,0,0,0,.51.22c.19,0,3.58.08,8.33.08s8.13,0,8.32-.08a1.54,1.54,0,0,0,.5-.21,2.4,2.4,0,0,0,.35-.36c.16-.21.17-.31.19-2.77a20.58,20.58,0,0,0-.06-2.75,1.67,1.67,0,0,0-.33-.46,1.51,1.51,0,0,0-.57-.33c-.19,0-3.51-.07-8.44-.07-6.81,0-8.19,0-8.44.11Z" transform="translate(981.08)"/><path class="cls-16" d="M503.19,186.1a2.19,2.19,0,0,0-.41.15,1.7,1.7,0,0,0-.39.38l-.22.28c0,3.9,0,5,0,5.18a1.37,1.37,0,0,0,.36.57,1.73,1.73,0,0,0,.61.33,26.11,26.11,0,0,0,3.19.06c2.71,0,2.86,0,3.12-.19a1.7,1.7,0,0,0,.46-.43c.17-.26.18-.29.18-2.88s0-2.62-.18-2.89a2.08,2.08,0,0,0-.46-.43c-.26-.15-.4-.16-3.16-.18-1.6,0-3,0-3.13,0Z" transform="translate(981.08)"/><path class="cls-16" d="M513.74,186.1a1.86,1.86,0,0,0-.4.15,1.54,1.54,0,0,0-.4.38l-.21.28c0,3.9,0,5,0,5.18a1.37,1.37,0,0,0,.36.57,2,2,0,0,0,.58.33c.18,0,3.26.08,8.38.08s8.2,0,8.38-.08a2,2,0,0,0,.57-.33,1.27,1.27,0,0,0,.36-.57,23.78,23.78,0,0,0,0-2.75l0-2.43a2.88,2.88,0,0,0-.68-.7c-.25-.13-.82-.14-8.51-.16C517.69,186.05,513.87,186.07,513.74,186.1Z" transform="translate(981.08)"/><path class="cls-16" d="M535,186.1a1.45,1.45,0,0,0-.45.19,1.39,1.39,0,0,0-.37.39c-.15.23-.16.39-.16,2.87s0,2.62.18,2.88a1.53,1.53,0,0,0,.45.43c.26.16.41.17,3.13.19A26.11,26.11,0,0,0,541,193a1.69,1.69,0,0,0,.6-.33,1.27,1.27,0,0,0,.36-.57,23.78,23.78,0,0,0,.05-2.75l0-2.43a2.88,2.88,0,0,0-.68-.7c-.24-.12-.56-.14-3.15-.16C536.53,186.05,535.13,186.07,535,186.1Z" transform="translate(981.08)"/><path class="cls-16" d="M503,205.19a1.17,1.17,0,0,0-.53.38,1.37,1.37,0,0,0-.3.65c0,.18,0,1.38,0,2.68l0,2.35a2.81,2.81,0,0,0,.68.71c.24.12.56.14,3.32.14h3.05a2.1,2.1,0,0,0,.75-.69c.12-.26.14-.58.14-2.85,0-2.54,0-2.56-.17-2.82a1.7,1.7,0,0,0-.46-.43c-.26-.16-.4-.17-3.24-.18C504.6,205.12,503.15,205.15,503,205.19Z" transform="translate(981.08)"/><path class="cls-16" d="M513.55,205.19a1.12,1.12,0,0,0-.53.38,1.5,1.5,0,0,0-.3.57c0,.13,0,1.35,0,2.68l0,2.43a2.49,2.49,0,0,0,.68.71c.24.13.8.14,8.66.14s8.41,0,8.65-.14a1.7,1.7,0,0,0,.47-.43l.22-.28c0-3.76,0-5,0-5.11a1.5,1.5,0,0,0-.34-.58,1.54,1.54,0,0,0-.56-.39c-.17,0-3.64-.07-8.48-.06C517.38,205.11,513.7,205.15,513.55,205.19Z" transform="translate(981.08)"/><path class="cls-16" d="M534.85,205.23a1.57,1.57,0,0,0-.47.25,1.76,1.76,0,0,0-.25.35,12.23,12.23,0,0,0-.11,2.75c0,2.26,0,2.57.15,2.83a1.4,1.4,0,0,0,.43.48l.32.21c5.8,0,6.12,0,6.36-.14a2,2,0,0,0,.47-.43l.21-.28c0-3.65,0-4.85,0-5a1.27,1.27,0,0,0-.34-.66,1.57,1.57,0,0,0-.57-.39c-.15,0-1.54-.07-3.09-.07a14.44,14.44,0,0,0-3.12.13Z" transform="translate(981.08)"/><path class="cls-1" d="M601.16,192.77a21.94,21.94,0,1,1-21.81-22A21.89,21.89,0,0,1,601.16,192.77Zm-22,20.38a20.43,20.43,0,1,0-20.36-20.58A20.44,20.44,0,0,0,579.15,213.15Z" transform="translate(981.08)"/><path class="cls-1" d="M592.82,192.84A13.55,13.55,0,0,1,589,202.2c-.27.28-.6.51-1,.27a1,1,0,0,1-.43-.69,1.22,1.22,0,0,1,.38-.71A11.41,11.41,0,0,0,590.5,197,11.89,11.89,0,0,0,588,184.38l-.19-.21a.74.74,0,0,1,0-1.06.72.72,0,0,1,1.09,0,23.21,23.21,0,0,1,1.72,2.13A13.48,13.48,0,0,1,592.82,192.84Z" transform="translate(981.08)"/><path class="cls-1" d="M565.62,192.44a13.34,13.34,0,0,1,3.85-9.16,1.13,1.13,0,0,1,.85-.34c.62.08.76.82.28,1.32a12.57,12.57,0,0,0-2.21,3.11,12.07,12.07,0,0,0,2.08,13.68,2.4,2.4,0,0,1,.22.24.75.75,0,0,1,0,1.07.72.72,0,0,1-1.06-.05,23.21,23.21,0,0,1-1.67-2A13.76,13.76,0,0,1,565.62,192.44Z" transform="translate(981.08)"/><path class="cls-1" d="M579.27,188.94a3.78,3.78,0,1,1-3.83,3.7A3.79,3.79,0,0,1,579.27,188.94Zm0,1.52a2.27,2.27,0,1,0,2.26,2.3A2.28,2.28,0,0,0,579.23,190.46Z" transform="translate(981.08)"/><path class="cls-1" d="M572.42,185c.26.21.55.34.64.56a1,1,0,0,1-.08.78,7.88,7.88,0,0,1-.76.9,8.88,8.88,0,0,0,.5,11.48,2,2,0,0,1,.2.21.76.76,0,1,1-1.11,1,9.79,9.79,0,0,1-2.48-4.13,10.23,10.23,0,0,1,2.4-10.33A5,5,0,0,1,572.42,185Z" transform="translate(981.08)"/><path class="cls-1" d="M589.61,192.81a10.41,10.41,0,0,1-2.9,7.11c-.38.4-.73.47-1.08.25s-.47-.82,0-1.29a8.59,8.59,0,0,0,2.15-3.77,8.79,8.79,0,0,0-2.07-8.47,1.13,1.13,0,0,1-.38-.67,1.08,1.08,0,0,1,.4-.71.65.65,0,0,1,.89.16,10.15,10.15,0,0,1,2,2.93A10.64,10.64,0,0,1,589.61,192.81Z" transform="translate(981.08)"/><path class="cls-1" d="M586.41,192.4a7.29,7.29,0,0,1-2,5.22,1.21,1.21,0,0,1-.81.36.76.76,0,0,1-.55-.48,1.13,1.13,0,0,1,.23-.83,6,6,0,0,0,1.51-3.2,5.55,5.55,0,0,0-1.4-4.54l-.16-.17a.76.76,0,0,1,0-1.14.75.75,0,0,1,1.09.09,6.74,6.74,0,0,1,1.76,3C586.27,191.38,586.35,192,586.41,192.4Z" transform="translate(981.08)"/><path class="cls-1" d="M572,192.5a6.92,6.92,0,0,1,2-4.74,1.13,1.13,0,0,1,.83-.27.8.8,0,0,1,.5.53,1.35,1.35,0,0,1-.31.83,5.62,5.62,0,0,0-.88,6.45,7.83,7.83,0,0,0,.95,1.35c.34.43.38.86,0,1.17s-.77.26-1.17-.15A7.41,7.41,0,0,1,572,192.5Z" transform="translate(981.08)"/><circle class="cls-15" cx="1577.25" cy="174.79" r="8.72"/><path class="cls-1" d="M590.17,175.2h12a.6.6,0,0,0,0-1.2h-12a.6.6,0,0,0,0,1.2Z" transform="translate(981.08)"/><path class="cls-1" d="M595.57,168.79v12a.6.6,0,0,0,1.2,0v-12a.6.6,0,0,0-1.2,0Z" transform="translate(981.08)"/><path class="cls-1" d="M542.14,246.38a21.94,21.94,0,1,1-21.81-22A21.89,21.89,0,0,1,542.14,246.38Zm-22,20.38a20.43,20.43,0,1,0-20.36-20.58A20.45,20.45,0,0,0,520.14,266.76Z" transform="translate(981.08)"/><path class="cls-1" d="M533.8,246.45a13.51,13.51,0,0,1-3.85,9.36c-.27.28-.59.51-1,.27a1,1,0,0,1-.44-.69,1.16,1.16,0,0,1,.39-.71,11.56,11.56,0,0,0,2.54-4.06A11.91,11.91,0,0,0,528.94,238l-.2-.21a.74.74,0,0,1,0-1.06.72.72,0,0,1,1.09,0,21.94,21.94,0,0,1,1.72,2.13A13.47,13.47,0,0,1,533.8,246.45Z" transform="translate(981.08)"/><path class="cls-1" d="M506.61,246a13.34,13.34,0,0,1,3.84-9.16,1.18,1.18,0,0,1,.86-.33c.61.08.76.81.27,1.32a12.35,12.35,0,0,0-2.2,3.11,12.07,12.07,0,0,0,2.08,13.68l.22.24a.75.75,0,0,1,0,1.06.71.71,0,0,1-1.06,0,23.21,23.21,0,0,1-1.67-2A13.69,13.69,0,0,1,506.61,246Z" transform="translate(981.08)"/><path class="cls-1" d="M520.25,242.55a3.78,3.78,0,1,1-3.83,3.7A3.79,3.79,0,0,1,520.25,242.55Zm0,1.52a2.27,2.27,0,1,0,2.25,2.3A2.27,2.27,0,0,0,520.22,244.07Z" transform="translate(981.08)"/><path class="cls-1" d="M513.41,238.65c.25.21.55.34.63.56a1,1,0,0,1-.08.78,8.94,8.94,0,0,1-.75.9,8.86,8.86,0,0,0,.5,11.48c.06.07.13.13.19.21a.77.77,0,0,1,0,1.1.76.76,0,0,1-1.13-.07,9.75,9.75,0,0,1-2.48-4.13,10.21,10.21,0,0,1,2.4-10.33A4.27,4.27,0,0,1,513.41,238.65Z" transform="translate(981.08)"/><path class="cls-1" d="M530.6,246.42a10.33,10.33,0,0,1-2.91,7.1c-.37.4-.73.48-1.08.26s-.47-.82,0-1.29a8.47,8.47,0,0,0,2.15-3.78,8.77,8.77,0,0,0-2.07-8.46c-.17-.19-.39-.45-.38-.67a1.09,1.09,0,0,1,.4-.71.66.66,0,0,1,.9.16,10.15,10.15,0,0,1,2,2.93A10.8,10.8,0,0,1,530.6,246.42Z" transform="translate(981.08)"/><path class="cls-1" d="M527.39,246a7.32,7.32,0,0,1-2,5.22,1.22,1.22,0,0,1-.81.35.71.71,0,0,1-.55-.47,1.16,1.16,0,0,1,.22-.84,5.83,5.83,0,0,0,1.51-3.19,5.58,5.58,0,0,0-1.39-4.54,1.37,1.37,0,0,0-.17-.17.78.78,0,0,1,0-1.14.77.77,0,0,1,1.1.09,6.72,6.72,0,0,1,1.75,3A16,16,0,0,1,527.39,246Z" transform="translate(981.08)"/><path class="cls-1" d="M513,246.11a6.92,6.92,0,0,1,2-4.74,1.11,1.11,0,0,1,.82-.27.74.74,0,0,1,.5.53,1.24,1.24,0,0,1-.31.83,5.63,5.63,0,0,0-.88,6.45,7.92,7.92,0,0,0,1,1.34c.35.44.38.87,0,1.18s-.77.25-1.16-.15A7.33,7.33,0,0,1,513,246.11Z" transform="translate(981.08)"/><circle class="cls-15" cx="1518.24" cy="228.4" r="8.72"/><path class="cls-1" d="M543.15,227.8h-12a.6.6,0,0,0,0,1.2h12a.6.6,0,0,0,0-1.2Z" transform="translate(981.08)"/><path class="cls-1" d="M603.3,245.76a21.94,21.94,0,1,1-21.81-22A21.89,21.89,0,0,1,603.3,245.76Zm-22,20.39a20.44,20.44,0,1,0-20.35-20.59A20.46,20.46,0,0,0,581.29,266.15Z" transform="translate(981.08)"/><path class="cls-1" d="M595,245.83a13.55,13.55,0,0,1-3.85,9.36c-.27.29-.6.51-1,.27a1,1,0,0,1-.44-.69,1.22,1.22,0,0,1,.38-.71,11.46,11.46,0,0,0,2.54-4.05,11.9,11.9,0,0,0-2.55-12.64c-.06-.07-.13-.13-.19-.21a.74.74,0,0,1,0-1.06.72.72,0,0,1,1.09,0,23.21,23.21,0,0,1,1.72,2.13A13.5,13.5,0,0,1,595,245.83Z" transform="translate(981.08)"/><path class="cls-1" d="M567.76,245.43a13.34,13.34,0,0,1,3.85-9.16,1.13,1.13,0,0,1,.85-.34c.62.08.76.82.28,1.32a12.57,12.57,0,0,0-2.21,3.11A12.07,12.07,0,0,0,572.61,254a2.4,2.4,0,0,1,.22.24.75.75,0,0,1,0,1.07.7.7,0,0,1-1,0,20.45,20.45,0,0,1-1.68-2A13.71,13.71,0,0,1,567.76,245.43Z" transform="translate(981.08)"/><path class="cls-1" d="M581.41,241.93a3.79,3.79,0,1,1-3.83,3.7A3.79,3.79,0,0,1,581.41,241.93Zm0,1.52a2.27,2.27,0,1,0,2.26,2.3A2.28,2.28,0,0,0,581.37,243.45Z" transform="translate(981.08)"/><path class="cls-1" d="M574.56,238c.26.21.55.34.64.56a1,1,0,0,1-.08.78,7.88,7.88,0,0,1-.76.9,8.88,8.88,0,0,0,.5,11.48l.2.21a.76.76,0,1,1-1.11,1,9.73,9.73,0,0,1-2.48-4.13,10.23,10.23,0,0,1,2.4-10.33A5.67,5.67,0,0,1,574.56,238Z" transform="translate(981.08)"/><path class="cls-1" d="M591.75,245.8a10.41,10.41,0,0,1-2.9,7.11c-.38.4-.73.47-1.08.25s-.47-.82,0-1.29a8.59,8.59,0,0,0,2.15-3.77,8.79,8.79,0,0,0-2.07-8.47c-.17-.19-.39-.45-.38-.66a1.12,1.12,0,0,1,.4-.72.65.65,0,0,1,.89.16,10.43,10.43,0,0,1,2,2.93A10.64,10.64,0,0,1,591.75,245.8Z" transform="translate(981.08)"/><path class="cls-1" d="M588.55,245.39a7.33,7.33,0,0,1-2,5.23,1.22,1.22,0,0,1-.81.35.77.77,0,0,1-.55-.47,1.14,1.14,0,0,1,.23-.84,6,6,0,0,0,1.51-3.19,5.57,5.57,0,0,0-1.4-4.55l-.16-.17a.76.76,0,0,1,0-1.14.75.75,0,0,1,1.09.09,6.72,6.72,0,0,1,1.76,3A15.4,15.4,0,0,1,588.55,245.39Z" transform="translate(981.08)"/><path class="cls-1" d="M574.18,245.5a7,7,0,0,1,2-4.75,1.13,1.13,0,0,1,.83-.27.8.8,0,0,1,.5.53,1.33,1.33,0,0,1-.31.83,5.65,5.65,0,0,0-.88,6.46,8.81,8.81,0,0,0,.95,1.34c.35.43.38.86,0,1.17s-.77.26-1.17-.14A7.45,7.45,0,0,1,574.18,245.5Z" transform="translate(981.08)"/><circle class="cls-15" cx="1579.39" cy="227.78" r="8.72"/><path class="cls-17" d="M601.77,221.81a1.78,1.78,0,0,0-.72.14,1.86,1.86,0,0,0-.6.4l-6.6,6.6a.61.61,0,0,0-.13.22l-.73,2.68a.5.5,0,0,0,.13.48.48.48,0,0,0,.47.12l2.69-.73a.48.48,0,0,0,.22-.12l6.59-6.6a1.82,1.82,0,0,0,.41-.61,1.91,1.91,0,0,0,.14-.71,2,2,0,0,0-.14-.72,1.93,1.93,0,0,0-.41-.61,1.86,1.86,0,0,0-.6-.4A1.78,1.78,0,0,0,601.77,221.81Zm-.34,1a.86.86,0,0,1,.68,0,1,1,0,0,1,.29.19,1.08,1.08,0,0,1,.2.29,1,1,0,0,1,.06.35,1,1,0,0,1-.06.34.84.84,0,0,1-.2.29l-6.5,6.5-1.74.48.47-1.74,6.51-6.51A1,1,0,0,1,601.43,222.85Z" transform="translate(981.08)"/><path class="cls-17" d="M650.23,181.14a7.8,7.8,0,1,0,7.79,7.8A7.8,7.8,0,0,0,650.23,181.14Zm-4.68,7.8a4.68,4.68,0,1,1,4.68,4.68A4.68,4.68,0,0,1,645.55,188.94Z" transform="translate(981.08)"/><path class="cls-1" d="M650.38,181a8.47,8.47,0,0,0-7.64,4.84,7.94,7.94,0,0,0,2.16,9.23,8.36,8.36,0,0,0,9.08.88A7.88,7.88,0,0,0,650.46,181c-.16,0-.82.3-.47.31a7.73,7.73,0,0,1,5.49,13.11,7.25,7.25,0,0,1-9.08,1,7.82,7.82,0,0,1-3.56-7.43,7.48,7.48,0,0,1,7.23-6.68C650.27,181.29,650.86,181,650.38,181Z" transform="translate(981.08)"/><path class="cls-1" d="M645.91,188.84a4.51,4.51,0,0,1,2.88-4.22,4.43,4.43,0,0,1,4.89,1.71,4.68,4.68,0,0,1,.27,5,4.07,4.07,0,0,1-4.69,2,4.67,4.67,0,0,1-3.35-4.46c0-.13-.73,0-.73.2a4.79,4.79,0,0,0,3.42,4.53,5.43,5.43,0,0,0,5.51-1.61,4.8,4.8,0,0,0,.37-5.72,5.14,5.14,0,0,0-9.3,2.8C645.18,189.16,645.91,189.06,645.91,188.84Z" transform="translate(981.08)"/><path class="cls-17" d="M645,169a1.73,1.73,0,0,0-1.44.77l-2.94,4.43h-6a5.19,5.19,0,0,0-5.19,5.19v19a5.19,5.19,0,0,0,5.19,5.19H665.8a5.19,5.19,0,0,0,5.19-5.19v-19a5.19,5.19,0,0,0-5.19-5.19h-6l-2.94-4.43a1.73,1.73,0,0,0-1.44-.77Zm-2,7.89,3-4.43h8.53l3,4.43a1.73,1.73,0,0,0,1.44.77h6.92a1.72,1.72,0,0,1,1.73,1.73v19a1.72,1.72,0,0,1-1.73,1.73H634.65a1.72,1.72,0,0,1-1.73-1.73v-19a1.72,1.72,0,0,1,1.73-1.73h6.92A1.73,1.73,0,0,0,643,176.9Z" transform="translate(981.08)"/><path class="cls-1" d="M645.09,168.85a3,3,0,0,0-2.34,1.72,23.1,23.1,0,0,0-2.2,3.3s-.24.32-.23.33c-.53-.55.89,0,.27-.17a7.83,7.83,0,0,0-1.81,0H635a5.68,5.68,0,0,0-5.91,5.48c-.05,1.65,0,3.31,0,5,0,4.66-.12,9.33,0,14a5.41,5.41,0,0,0,5.51,5.34c1.36,0,2.72,0,4.07,0h16.91c3.45,0,7,.23,10.43,0a5.64,5.64,0,0,0,5.33-5.71c0-2,0-4,0-6v-8.59a35.67,35.67,0,0,0-.05-5,5.32,5.32,0,0,0-3.74-4.3,10.81,10.81,0,0,0-3.16-.23c-1.33,0-2.68-.08-4,0a1.13,1.13,0,0,1-.41,0c.23.09.15.06,0-.11-.3-.52-.67-1-1-1.51-.6-.89-1.15-1.87-1.82-2.72a2.49,2.49,0,0,0-2.23-.85h-9.81c-.23,0-.78.35-.3.35h9.4c1,0,1.7,0,2.34.88s1.3,2,2,2.93c.31.46.6,1.21,1.12,1.38a11.28,11.28,0,0,0,3,0c1,0,2,0,3,0a5.14,5.14,0,0,1,4.94,4.37,12.68,12.68,0,0,1,0,1.63v14.45a30.78,30.78,0,0,1,0,4.4,4.86,4.86,0,0,1-4.67,4.22c-.35,0-.7,0-1,0H637.08a11.65,11.65,0,0,1-4-.31c-2.75-1-3.31-3.58-3.31-6.12v-14.7c0-1.65-.23-3.6.47-5.13,1.58-3.48,5.64-2.81,8.76-2.81.52,0,1.45.18,1.9-.16a9.64,9.64,0,0,0,1.5-2.24c.54-.81,1.36-2.69,2.52-2.8C645.3,169.15,645.6,168.8,645.09,168.85Z" transform="translate(981.08)"/><path class="cls-1" d="M643.34,176.88l1.48-2.21,1-1.43a3.74,3.74,0,0,0,.32-.49c.21-.52,0,0-.05-.19.08.32-.42,0-.06.09a1.45,1.45,0,0,0,.36,0h5.18a15.87,15.87,0,0,1,2.67,0c.15,0-.07-.2.09.16a8.63,8.63,0,0,0,.84,1.26c.91,1.36,1.83,3.7,3.7,3.77,2.07.07,4.16,0,6.24,0,1.11,0,2,.46,2.1,1.72,0,.48,0,1,0,1.46v13.91c0,1.18.11,2.42,0,3.6-.18,1.86-2.11,1.46-3.37,1.46H637.15a8.38,8.38,0,0,1-2.87-.11c-1.43-.6-1-3.07-1-4.29V181.52c0-1.43-.41-3.49,1.6-3.68s4.23.06,6.32,0a2.61,2.61,0,0,0,2.14-1c.18-.2-.53-.13-.66,0-.76.92-2.42.58-3.44.58h-3.7c-1.61,0-2.95.5-3,2.34-.09,4.49,0,9,0,13.51,0,1.67-.09,3.37,0,5s1.23,2,2.55,2h27.2c1.09,0,2.19,0,3.28,0a2.3,2.3,0,0,0,2.3-2.63v-14c0-1.45.12-2.95,0-4.4-.19-2.41-3.24-1.84-4.91-1.84-1.19,0-2.38,0-3.57,0s-1.64-.74-2.24-1.63-1.36-2.05-2-3.07c-.3-.47-.36-.49-.9-.49-2.32,0-4.64,0-7,0-.44,0-1.18-.14-1.58.14a8.68,8.68,0,0,0-1.46,2.15l-1.54,2.32C642.52,177.14,643.23,177.05,643.34,176.88Z" transform="translate(981.08)"/><path class="cls-1" d="M665.21,225.15a2.14,2.14,0,0,1,2.14,2.14v34.25a2.14,2.14,0,1,1-4.28,0V227.29A2.14,2.14,0,0,1,665.21,225.15Z" transform="translate(981.08)"/><path class="cls-1" d="M652.37,238a2.14,2.14,0,0,1,2.14,2.14v21.41a2.14,2.14,0,0,1-4.28,0V240.13A2.14,2.14,0,0,1,652.37,238Z" transform="translate(981.08)"/><path class="cls-1" d="M641.66,253a2.14,2.14,0,1,0-4.28,0v8.56a2.14,2.14,0,1,0,4.28,0Z" transform="translate(981.08)"/><path class="cls-18" d="M642.64,123.59a.61.61,0,0,0,0-.18c-.06-.74.17-1,1-.94,2.35,0,4.7,0,7,0,.77,0,.89.12.9.88,0,.06,0,.13,0,.24H654c.72,0,.86.14.86.85,0,2.6,0,5.21,0,7.81a.42.42,0,0,0,.26.46,1.53,1.53,0,0,1,.85,1.41c0,2.19,0,4.38,0,6.57a2.61,2.61,0,0,1-.65,1.68c-.55.66-1.09,1.32-1.65,2a1.83,1.83,0,0,0-.47,1.3c0,.22,0,.44,0,.66a1.67,1.67,0,0,1-1.48,1.73l-.19,0v1.5a1.72,1.72,0,0,1-.94,1.65.44.44,0,0,0-.16.36c0,1.52,0,3,0,4.58,0,.62-.17.78-.79.78h-5.14c-.56,0-.74-.18-.74-.75v-4.62a.37.37,0,0,0-.23-.4,1.6,1.6,0,0,1-.88-1.47c0-.54,0-1.09,0-1.62a1.71,1.71,0,0,1-1.66-2,2.68,2.68,0,0,0-.77-2.1c-.49-.52-.93-1.1-1.39-1.65a2.78,2.78,0,0,1-.63-1.8v-6.29a1.7,1.7,0,0,1,.92-1.59.51.51,0,0,0,.18-.38q0-3.94,0-7.89c0-.64.16-.8.79-.8Zm0,10H640c-.51,0-.7.2-.7.73v6.14a1.83,1.83,0,0,0,.46,1.27c.43.51.82,1,1.28,1.52a3.64,3.64,0,0,1,1.05,2.9c-.05.62.16.79.77.79H651c1.1,0,1.16,0,1.13-1.13a3.25,3.25,0,0,1,.84-2.32c.52-.58,1-1.18,1.5-1.78a1.68,1.68,0,0,0,.44-1.1q0-3.2,0-6.39a.56.56,0,0,0-.63-.62h-2.71v3.77a1.67,1.67,0,0,1-1.8,1.79h-5.28a1.67,1.67,0,0,1-1.81-1.82C642.65,136.1,642.65,134.88,642.65,133.59Zm8.9-8.88V129c0,.55-.18.73-.73.73h-1.49v1c0,.44-.21.65-.64.65h-3.17c-.43,0-.63-.21-.64-.64s0-.67,0-1h-1.49c-.55,0-.73-.18-.73-.72,0-1.3,0-2.6,0-3.89v-.36h-2.2v7.73h13.3v-7.75Zm-1.11,8.91h-6.67c0,1.29,0,2.55,0,3.81,0,.4.22.6.64.61s1,0,1.49,0h3.89c.39,0,.64-.19.64-.53C650.44,136.22,650.44,134.93,650.44,133.62Zm0-5v-5h-6.62v5h1.54a.58.58,0,0,1,.66.66v1h2.23c0-.34,0-.66,0-1s.2-.67.68-.67Zm-1.1,22.82h-4.4v4.4h4.4Zm1.13-3.34h-6.67c0,.57,0,1.11,0,1.65a.53.53,0,0,0,.56.55h5.55a.52.52,0,0,0,.55-.55C650.45,149.18,650.44,148.64,650.44,148.07Z" transform="translate(981.08)"/><path class="cls-16" d="M646,124.72v2.73H644.9v-2.73Z" transform="translate(981.08)"/><path class="cls-16" d="M646.57,124.71h1.07v2.74h-1.07Z" transform="translate(981.08)"/><path class="cls-16" d="M648.22,127.46v-2.73h1.08v2.73Z" transform="translate(981.08)"/></svg>