<?xml version="1.0" encoding="UTF-8"?>
<svg xmlns="http://www.w3.org/2000/svg" width="800.000" height="600.000" viewBox="0.0 0.0 800.000 600.000" version="1.1">
  <g id="freecads.com" display="visible">
    <g>
      <path d="M627.12 15.71L627.12 157.89Z" fill="none" stroke="black" stroke-width="0.5" />
      <path d="M627.12 157.89L797.74 157.89" fill="none" stroke="black" stroke-width="0.5" />
      <path d="M797.74 157.89L797.74 15.71Z" fill="none" stroke="black" stroke-width="0.5" />
      <path d="M797.74 15.71L627.12 15.71" fill="none" stroke="black" stroke-width="0.5" />
    </g>
    <g>
      <path d="M194.44 575.29L194.44 276.16Z" fill="none" stroke="black" stroke-width="0.5" />
    </g>
    <g>
      <path d="M605.56 160.32L605.56 575.29Z" fill="none" stroke="black" stroke-width="0.5" />
    </g>
    <g>
      <path d="M 194.44 575.29 A 5.687 5.687 0 0 0 200.13 580.97" fill="none" stroke="black" stroke-width="0.5" />
    </g>
    <g>
      <path d="M 599.87 580.97 A 5.687 5.687 0 0 0 605.56 575.29" fill="none" stroke="black" stroke-width="0.5" />
    </g>
    <g>
      <path d="M599.87 580.97L200.13 580.97" fill="none" stroke="black" stroke-width="0.5" />
    </g>
    <g>
      <path d="M 599.87 232.15 A 5.687 5.687 0 0 0 605.56 226.46" fill="none" stroke="black" stroke-width="0.5" />
    </g>
    <g>
      <path d="M599.87 232.15L352.63 232.15" fill="none" stroke="black" stroke-width="0.5" />
    </g>
    <g>
      <path d="M 605.56 160.32 A 5.687 5.687 0 0 0 599.87 154.63" fill="none" stroke="black" stroke-width="0.5" />
    </g>
    <g>
      <path d="M370.2 154.63L599.87 154.63" fill="none" stroke="black" stroke-width="0.5" />
    </g>
    <g>
      <path d="M370.2 154.63L194.44 276.16" fill="none" stroke="black" stroke-width="0.5" />
    </g>
    <g>
      <path d="M612.9 30.6L186.36 30.6" fill="none" stroke="black" stroke-width="0.5" />
    </g>
    <g>
      <path d="M 352.2 185.94 A 106.655 106.655 0 0 0 370.2 154.63" fill="none" stroke="black" stroke-width="0.5" />
    </g>
    <g>
      <path d="M 349.58 210.83 A 51.216 51.216 0 0 0 352.2 185.94" fill="none" stroke="black" stroke-width="0.5" />
    </g>
    <g>
      <path d="M349.58 210.83L353.46 237.96" fill="none" stroke="black" stroke-width="0.5" />
    </g>
    <g>
      <path d="M353.46 237.96L352.96 274.97" fill="none" stroke="black" stroke-width="0.5" />
    </g>
    <g>
      <path d="M 352.96 274.97 A 1074.91 1074.91 0 0 0 319.52 269.91" fill="none" stroke="black" stroke-width="0.5" />
    </g>
    <g>
      <path d="M 319.52 269.91 A 735.92 735.92 0 0 0 292.01 264.77" fill="none" stroke="black" stroke-width="0.5" />
    </g>
    <g>
      <path d="M 292.01 264.77 A 715.395 715.395 0 0 0 273.52 260.7" fill="none" stroke="black" stroke-width="0.5" />
    </g>
    <g>
      <path d="M 268.35 259.74 A 55.209 55.209 0 0 0 273.52 260.7" fill="none" stroke="black" stroke-width="0.5" />
    </g>
    <g>
      <path d="M 263.05 259.88 A 16.53 16.53 0 0 0 268.35 259.74" fill="none" stroke="black" stroke-width="0.5" />
    </g>
    <g>
      <path d="M 219.65 268.97 A 1155.808 1155.808 0 0 0 263.05 259.88" fill="none" stroke="black" stroke-width="0.5" />
    </g>
    <g>
      <path d="M 210.14 271.41 A 186.938 186.938 0 0 0 219.65 268.97" fill="none" stroke="black" stroke-width="0.5" />
    </g>
    <g>
      <path d="M 194.44 276.16 A 521.847 521.847 0 0 0 210.14 271.41" fill="none" stroke="black" stroke-width="0.5" />
    </g>
    <g>
      <path d="M 580.62 60.01 A 25.551 25.551 0 0 0 584.66 56.32" fill="none" stroke="black" stroke-width="0.5" />
    </g>
    <g>
      <path d="M 578.31 63.5 A 14.96 14.96 0 0 0 580.62 60.01" fill="none" stroke="black" stroke-width="0.5" />
    </g>
    <g>
      <path d="M 577.25 65.94 A 42.965 42.965 0 0 0 578.31 63.5" fill="none" stroke="black" stroke-width="0.5" />
    </g>
    <g>
      <path d="M 576.18 68.84 A 58.453 58.453 0 0 0 577.25 65.94" fill="none" stroke="black" stroke-width="0.5" />
    </g>
    <g>
      <path d="M 575.33 73.98 A 15.971 15.971 0 0 0 576.18 68.84" fill="none" stroke="black" stroke-width="0.5" />
    </g>
    <g>
      <path d="M 576.18 80.58 A 26.028 26.028 0 0 0 575.33 73.98" fill="none" stroke="black" stroke-width="0.5" />
    </g>
    <g>
      <path d="M 558.48 144.72 A 210.049 210.049 0 0 0 550.72 142.15" fill="none" stroke="black" stroke-width="0.5" />
    </g>
    <g>
      <path d="M 550.72 142.15 A 210.049 210.049 0 0 0 543.07 139.28" fill="none" stroke="black" stroke-width="0.5" />
    </g>
    <g>
      <path d="M 543.07 139.28 A 210.049 210.049 0 0 0 536.88 136.71" fill="none" stroke="black" stroke-width="0.5" />
    </g>
    <g>
      <path d="M 536.88 136.71 A 210.049 210.049 0 0 0 530.79 133.94" fill="none" stroke="black" stroke-width="0.5" />
    </g>
    <g>
      <path d="M 425.06 145.15 A 207.193 207.193 0 0 0 436.12 137.69" fill="none" stroke="black" stroke-width="0.5" />
    </g>
    <g>
      <path d="M 436.12 137.69 A 88.903 88.903 0 0 0 443.75 133.41" fill="none" stroke="black" stroke-width="0.5" />
    </g>
    <g>
      <path d="M 443.75 133.41 A 407.288 407.288 0 0 0 457.69 126.78" fill="none" stroke="black" stroke-width="0.5" />
    </g>
    <g>
      <path d="M 457.69 126.78 A 144.071 144.071 0 0 0 466.17 123.27" fill="none" stroke="black" stroke-width="0.5" />
    </g>
    <g>
      <path d="M 466.17 123.27 A 16.486 16.486 0 0 0 470.82 122.25" fill="none" stroke="black" stroke-width="0.5" />
    </g>
    <g>
      <path d="M 470.82 122.25 A 77.362 77.362 0 0 0 481.12 122.2" fill="none" stroke="black" stroke-width="0.5" />
    </g>
    <g>
      <path d="M 356.8 144.72 A 210.049 210.049 0 0 0 349.04 142.15" fill="none" stroke="black" stroke-width="0.5" />
    </g>
    <g>
      <path d="M 349.04 142.15 A 210.049 210.049 0 0 0 341.39 139.28" fill="none" stroke="black" stroke-width="0.5" />
    </g>
    <g>
      <path d="M 341.39 139.28 A 210.049 210.049 0 0 0 335.2 136.71" fill="none" stroke="black" stroke-width="0.5" />
    </g>
    <g>
      <path d="M 335.2 136.71 A 210.049 210.049 0 0 0 329.11 133.94" fill="none" stroke="black" stroke-width="0.5" />
    </g>
    <g>
      <path d="M 592.13 46.42 A 9.721 9.721 0 0 0 584.19 51.76" fill="none" stroke="black" stroke-width="0.5" />
    </g>
    <g>
      <path d="M 589.53 41.09 A 3.732 3.732 0 0 0 592.13 46.42" fill="none" stroke="black" stroke-width="0.5" />
    </g>
    <g>
      <path d="M 584.5 40.6 A 25.706 25.706 0 0 0 589.53 41.09" fill="none" stroke="black" stroke-width="0.5" />
    </g>
    <g>
      <path d="M 577.78 41.09 A 45.82 45.82 0 0 0 584.5 40.6" fill="none" stroke="black" stroke-width="0.5" />
    </g>
    <g>
      <path d="M 566.98 43.4 A 86.664 86.664 0 0 0 577.78 41.09" fill="none" stroke="black" stroke-width="0.5" />
    </g>
    <g>
      <path d="M 566.98 43.4 A 68.884 68.884 0 0 0 557.33 45.39" fill="none" stroke="black" stroke-width="0.5" />
    </g>
    <g>
      <path d="M 557.33 45.39 A 194.13 194.13 0 0 0 531.84 47.07" fill="none" stroke="black" stroke-width="0.5" />
    </g>
    <g>
      <path d="M 531.84 47.07 A 298.292 298.292 0 0 0 500.21 45.39" fill="none" stroke="black" stroke-width="0.5" />
    </g>
    <g>
      <path d="M 500.21 45.39 A 150.508 150.508 0 0 0 489.54 43.87" fill="none" stroke="black" stroke-width="0.5" />
    </g>
    <g>
      <path d="M 483.79 43.23 A 43.33 43.33 0 0 0 489.54 43.87" fill="none" stroke="black" stroke-width="0.5" />
    </g>
    <g>
      <path d="M 473.25 43.43 A 82.381 82.381 0 0 0 483.79 43.23" fill="none" stroke="black" stroke-width="0.5" />
    </g>
    <g>
      <path d="M 473.25 43.43 A 248.308 248.308 0 0 0 454.96 44.29" fill="none" stroke="black" stroke-width="0.5" />
    </g>
    <g>
      <path d="M 454.96 44.29 A 424.915 424.915 0 0 0 436.54 44.08" fill="none" stroke="black" stroke-width="0.5" />
    </g>
    <g>
      <path d="M 436.54 44.08 A 233.402 233.402 0 0 0 422.92 43.23" fill="none" stroke="black" stroke-width="0.5" />
    </g>
    <g>
      <path d="M 422.92 43.23 A 15.333 15.333 0 0 0 416.51 41.15" fill="none" stroke="black" stroke-width="0.5" />
    </g>
    <g>
      <path d="M 411.71 40.02 A 8.212 8.212 0 0 0 416.51 41.15" fill="none" stroke="black" stroke-width="0.5" />
    </g>
    <g>
      <path d="M 409.59 40.51 A 7.14 7.14 0 0 0 411.71 40.02" fill="none" stroke="black" stroke-width="0.5" />
    </g>
    <g>
      <path d="M 409.04 41.09 A 0.972 0.972 0 0 0 409.59 40.51" fill="none" stroke="black" stroke-width="0.5" />
    </g>
    <g>
      <path d="M 409.79 41.96 A 0.659 0.659 0 0 0 409.04 41.09" fill="none" stroke="black" stroke-width="0.5" />
    </g>
    <g>
      <path d="M 409.79 41.96 A 1.217 1.217 0 0 0 411.17 42.69" fill="none" stroke="black" stroke-width="0.5" />
    </g>
    <g>
      <path d="M 411.17 42.69 A 4.435 4.435 0 0 0 411.19 45.97" fill="none" stroke="black" stroke-width="0.5" />
    </g>
    <g>
      <path d="M 410.64 50.7 A 9.324 9.324 0 0 0 411.19 45.97" fill="none" stroke="black" stroke-width="0.5" />
    </g>
    <g>
      <path d="M 411.49 55.47 A 69.962 69.962 0 0 0 410.64 50.7" fill="none" stroke="black" stroke-width="0.5" />
    </g>
    <g>
      <path d="M 411.49 55.47 A 56.399 56.399 0 0 0 412.24 59.77" fill="none" stroke="black" stroke-width="0.5" />
    </g>
    <g>
      <path d="M 412.24 59.77 A 259.638 259.638 0 0 0 414.12 79.21" fill="none" stroke="black" stroke-width="0.5" />
    </g>
    <g>
      <path d="M 414.12 79.21 A 193.005 193.005 0 0 0 414.38 96.06" fill="none" stroke="black" stroke-width="0.5" />
    </g>
    <g>
      <path d="M 414.38 96.06 A 388.22 388.22 0 0 0 413.98 105.68" fill="none" stroke="black" stroke-width="0.5" />
    </g>
    <g>
      <path d="M 413.98 105.68 A 3877.441 3877.441 0 0 0 412.24 136.08" fill="none" stroke="black" stroke-width="0.5" />
    </g>
    <g>
      <path d="M 412.24 136.08 A 91.332 91.332 0 0 0 411.02 146.35" fill="none" stroke="black" stroke-width="0.5" />
    </g>
    <g>
      <path d="M 411.17 148.88 A 5.497 5.497 0 0 0 411.02 146.35" fill="none" stroke="black" stroke-width="0.5" />
    </g>
    <g>
      <path d="M 411.58 149.15 A 0.376 0.376 0 0 0 411.17 148.88" fill="none" stroke="black" stroke-width="0.5" />
    </g>
    <g>
      <path d="M 415.44 148.35 A 24.876 24.876 0 0 0 411.58 149.15" fill="none" stroke="black" stroke-width="0.5" />
    </g>
    <g>
      <path d="M 419.35 146.79 A 21.818 21.818 0 0 0 415.44 148.35" fill="none" stroke="black" stroke-width="0.5" />
    </g>
    <g>
      <path d="M 419.35 146.79 A 12.879 12.879 0 0 0 422.39 145.68" fill="none" stroke="black" stroke-width="0.5" />
    </g>
    <g>
      <path d="M 422.39 145.68 A 41.483 41.483 0 0 0 429.04 144.72" fill="none" stroke="black" stroke-width="0.5" />
    </g>
    <g>
      <path d="M 429.04 144.72 A 331.002 331.002 0 0 0 448.02 144.08" fill="none" stroke="black" stroke-width="0.5" />
    </g>
    <g>
      <path d="M 448.02 144.08 A 1626.129 1626.129 0 0 0 483.69 144.3" fill="none" stroke="black" stroke-width="0.5" />
    </g>
    <g>
      <path d="M 483.69 144.3 A 956.079 956.079 0 0 0 511.03 145.15" fill="none" stroke="black" stroke-width="0.5" />
    </g>
    <g>
      <path d="M 511.03 145.15 A 345.915 345.915 0 0 0 523.13 145.91" fill="none" stroke="black" stroke-width="0.5" />
    </g>
    <g>
      <path d="M 536.13 146.75 A 399.462 399.462 0 0 0 523.13 145.91" fill="none" stroke="black" stroke-width="0.5" />
    </g>
    <g>
      <path d="M 552.37 145.5 A 65.418 65.418 0 0 0 536.13 146.75" fill="none" stroke="black" stroke-width="0.5" />
    </g>
    <g>
      <path d="M 552.37 145.5 A 41.492 41.492 0 0 0 565.33 144.92" fill="none" stroke="black" stroke-width="0.5" />
    </g>
    <g>
      <path d="M 565.33 144.92 A 34.049 34.049 0 0 0 571.69 146.26" fill="none" stroke="black" stroke-width="0.5" />
    </g>
    <g>
      <path d="M 580.45 148.35 A 65.309 65.309 0 0 0 571.69 146.26" fill="none" stroke="black" stroke-width="0.5" />
    </g>
    <g>
      <path d="M 587.65 149.21 A 76.992 76.992 0 0 0 580.45 148.35" fill="none" stroke="black" stroke-width="0.5" />
    </g>
    <g>
      <path d="M 587.92 148.88 A 0.261 0.261 0 0 0 587.65 149.21" fill="none" stroke="black" stroke-width="0.5" />
    </g>
    <g>
      <path d="M587.92 148.88L585.79 140.35" fill="none" stroke="black" stroke-width="0.5" />
    </g>
    <g>
      <path d="M585.79 140.35L579.91 116.87" fill="none" stroke="black" stroke-width="0.5" />
    </g>
    <g>
      <path d="M 579.91 116.87 A 19.255 19.255 0 0 0 579.36 111.3" fill="none" stroke="black" stroke-width="0.5" />
    </g>
    <g>
      <path d="M 579.36 111.3 A 187.333 187.333 0 0 0 580.98 93.92" fill="none" stroke="black" stroke-width="0.5" />
    </g>
    <g>
      <path d="M 580.98 93.92 A 90.178 90.178 0 0 0 582.14 87.42" fill="none" stroke="black" stroke-width="0.5" />
    </g>
    <g>
      <path d="M 584.23 76.62 A 250.817 250.817 0 0 0 582.14 87.42" fill="none" stroke="black" stroke-width="0.5" />
    </g>
    <g>
      <path d="M 585.05 66.86 A 58.004 58.004 0 0 0 584.23 76.62" fill="none" stroke="black" stroke-width="0.5" />
    </g>
    <g>
      <path d="M 584.23 51.68 A 139.858 139.858 0 0 0 585.05 66.86" fill="none" stroke="black" stroke-width="0.5" />
    </g>
    <g>
      <path d="M 574.34 58.97 A 39.795 39.795 0 0 0 584.24 51.76" fill="none" stroke="black" stroke-width="0.5" />
    </g>
    <g>
      <path d="M 567.1 68.84 A 39.795 39.795 0 0 0 574.34 58.97" fill="none" stroke="black" stroke-width="0.5" />
    </g>
    <g>
      <path d="M 564.28 75.84 A 39.795 39.795 0 0 0 567.1 68.84" fill="none" stroke="black" stroke-width="0.5" />
    </g>
    <g>
      <path d="M 562.83 83.25 A 39.795 39.795 0 0 0 564.28 75.84" fill="none" stroke="black" stroke-width="0.5" />
    </g>
    <g>
      <path d="M 426.12 42.69 A 28.21 28.21 0 0 0 435.94 43.7" fill="none" stroke="black" stroke-width="0.5" />
    </g>
    <g>
      <path d="M 435.94 43.7 A 28.21 28.21 0 0 0 444.81 48.03" fill="none" stroke="black" stroke-width="0.5" />
    </g>
    <g>
      <path d="M 444.81 48.03 A 28.21 28.21 0 0 0 450.97 54.17" fill="none" stroke="black" stroke-width="0.5" />
    </g>
    <g>
      <path d="M 450.97 54.17 A 28.21 28.21 0 0 0 454.96 61.9" fill="none" stroke="black" stroke-width="0.5" />
    </g>
    <g>
      <path d="M 449.44 44.31 A 66.547 66.547 0 0 0 456.2 47.33" fill="none" stroke="black" stroke-width="0.5" />
    </g>
    <g>
      <path d="M 456.2 47.33 A 21.834 21.834 0 0 0 459.77 49.63" fill="none" stroke="black" stroke-width="0.5" />
    </g>
    <g>
      <path d="M 459.77 49.63 A 111.37 111.37 0 0 0 467.71 56.56" fill="none" stroke="black" stroke-width="0.5" />
    </g>
    <g>
      <path d="M 467.71 56.56 A 64.038 64.038 0 0 0 473.11 62.44" fill="none" stroke="black" stroke-width="0.5" />
    </g>
    <g>
      <path d="M 473.11 62.44 A 14.024 14.024 0 0 0 474.57 64.62" fill="none" stroke="black" stroke-width="0.5" />
    </g>
    <g>
      <path d="M 474.57 64.62 A 56.925 56.925 0 0 0 476.85 69.37" fill="none" stroke="black" stroke-width="0.5" />
    </g>
    <g>
      <path d="M 390.45 46.42 A 9.721 9.721 0 0 0 382.5 51.76" fill="none" stroke="black" stroke-width="0.5" />
    </g>
    <g>
      <path d="M 387.84 41.09 A 3.732 3.732 0 0 0 390.45 46.42" fill="none" stroke="black" stroke-width="0.5" />
    </g>
    <g>
      <path d="M 382.82 40.6 A 25.706 25.706 0 0 0 387.84 41.09" fill="none" stroke="black" stroke-width="0.5" />
    </g>
    <g>
      <path d="M 376.1 41.09 A 45.82 45.82 0 0 0 382.82 40.6" fill="none" stroke="black" stroke-width="0.5" />
    </g>
    <g>
      <path d="M 365.3 43.4 A 86.664 86.664 0 0 0 376.1 41.09" fill="none" stroke="black" stroke-width="0.5" />
    </g>
    <g>
      <path d="M 365.3 43.4 A 68.884 68.884 0 0 0 355.65 45.39" fill="none" stroke="black" stroke-width="0.5" />
    </g>
    <g>
      <path d="M 355.65 45.39 A 194.13 194.13 0 0 0 330.16 47.07" fill="none" stroke="black" stroke-width="0.5" />
    </g>
    <g>
      <path d="M 330.16 47.07 A 298.292 298.292 0 0 0 298.53 45.39" fill="none" stroke="black" stroke-width="0.5" />
    </g>
    <g>
      <path d="M 298.53 45.39 A 150.508 150.508 0 0 0 287.86 43.87" fill="none" stroke="black" stroke-width="0.5" />
    </g>
    <g>
      <path d="M 282.11 43.23 A 43.33 43.33 0 0 0 287.86 43.87" fill="none" stroke="black" stroke-width="0.5" />
    </g>
    <g>
      <path d="M 271.57 43.43 A 82.381 82.381 0 0 0 282.11 43.23" fill="none" stroke="black" stroke-width="0.5" />
    </g>
    <g>
      <path d="M 271.57 43.43 A 248.308 248.308 0 0 0 253.28 44.29" fill="none" stroke="black" stroke-width="0.5" />
    </g>
    <g>
      <path d="M 253.28 44.29 A 424.915 424.915 0 0 0 234.86 44.08" fill="none" stroke="black" stroke-width="0.5" />
    </g>
    <g>
      <path d="M 234.86 44.08 A 233.402 233.402 0 0 0 221.24 43.23" fill="none" stroke="black" stroke-width="0.5" />
    </g>
    <g>
      <path d="M 221.24 43.23 A 15.333 15.333 0 0 0 214.83 41.15" fill="none" stroke="black" stroke-width="0.5" />
    </g>
    <g>
      <path d="M 210.02 40.02 A 8.212 8.212 0 0 0 214.83 41.15" fill="none" stroke="black" stroke-width="0.5" />
    </g>
    <g>
      <path d="M 207.91 40.51 A 7.14 7.14 0 0 0 210.02 40.02" fill="none" stroke="black" stroke-width="0.5" />
    </g>
    <g>
      <path d="M 207.35 41.09 A 0.972 0.972 0 0 0 207.91 40.51" fill="none" stroke="black" stroke-width="0.5" />
    </g>
    <g>
      <path d="M 208.11 41.96 A 0.659 0.659 0 0 0 207.35 41.09" fill="none" stroke="black" stroke-width="0.5" />
    </g>
    <g>
      <path d="M 208.11 41.96 A 1.217 1.217 0 0 0 209.49 42.69" fill="none" stroke="black" stroke-width="0.5" />
    </g>
    <g>
      <path d="M 209.49 42.69 A 4.435 4.435 0 0 0 209.51 45.97" fill="none" stroke="black" stroke-width="0.5" />
    </g>
    <g>
      <path d="M 208.96 50.7 A 9.324 9.324 0 0 0 209.51 45.97" fill="none" stroke="black" stroke-width="0.5" />
    </g>
    <g>
      <path d="M 209.81 55.47 A 69.962 69.962 0 0 0 208.96 50.7" fill="none" stroke="black" stroke-width="0.5" />
    </g>
    <g>
      <path d="M 209.81 55.47 A 56.399 56.399 0 0 0 210.56 59.77" fill="none" stroke="black" stroke-width="0.5" />
    </g>
    <g>
      <path d="M 210.56 59.77 A 259.638 259.638 0 0 0 212.44 79.21" fill="none" stroke="black" stroke-width="0.5" />
    </g>
    <g>
      <path d="M 212.44 79.21 A 193.005 193.005 0 0 0 212.69 96.06" fill="none" stroke="black" stroke-width="0.5" />
    </g>
    <g>
      <path d="M 212.69 96.06 A 388.22 388.22 0 0 0 212.3 105.68" fill="none" stroke="black" stroke-width="0.5" />
    </g>
    <g>
      <path d="M 212.3 105.68 A 3877.441 3877.441 0 0 0 210.56 136.08" fill="none" stroke="black" stroke-width="0.5" />
    </g>
    <g>
      <path d="M 210.56 136.08 A 91.332 91.332 0 0 0 209.34 146.35" fill="none" stroke="black" stroke-width="0.5" />
    </g>
    <g>
      <path d="M 209.49 148.88 A 5.497 5.497 0 0 0 209.34 146.35" fill="none" stroke="black" stroke-width="0.5" />
    </g>
    <g>
      <path d="M 209.9 149.15 A 0.376 0.376 0 0 0 209.49 148.88" fill="none" stroke="black" stroke-width="0.5" />
    </g>
    <g>
      <path d="M 213.76 148.35 A 24.876 24.876 0 0 0 209.9 149.15" fill="none" stroke="black" stroke-width="0.5" />
    </g>
    <g>
      <path d="M 217.67 146.79 A 21.818 21.818 0 0 0 213.76 148.35" fill="none" stroke="black" stroke-width="0.5" />
    </g>
    <g>
      <path d="M 217.67 146.79 A 12.879 12.879 0 0 0 220.7 145.68" fill="none" stroke="black" stroke-width="0.5" />
    </g>
    <g>
      <path d="M 220.7 145.68 A 41.483 41.483 0 0 0 227.36 144.72" fill="none" stroke="black" stroke-width="0.5" />
    </g>
    <g>
      <path d="M 227.36 144.72 A 331.002 331.002 0 0 0 246.34 144.08" fill="none" stroke="black" stroke-width="0.5" />
    </g>
    <g>
      <path d="M 246.34 144.08 A 1626.129 1626.129 0 0 0 282.01 144.3" fill="none" stroke="black" stroke-width="0.5" />
    </g>
    <g>
      <path d="M 282.01 144.3 A 956.079 956.079 0 0 0 309.35 145.15" fill="none" stroke="black" stroke-width="0.5" />
    </g>
    <g>
      <path d="M 309.35 145.15 A 345.915 345.915 0 0 0 321.45 145.91" fill="none" stroke="black" stroke-width="0.5" />
    </g>
    <g>
      <path d="M 334.45 146.75 A 399.462 399.462 0 0 0 321.45 145.91" fill="none" stroke="black" stroke-width="0.5" />
    </g>
    <g>
      <path d="M 350.69 145.5 A 65.418 65.418 0 0 0 334.45 146.75" fill="none" stroke="black" stroke-width="0.5" />
    </g>
    <g>
      <path d="M 350.69 145.5 A 41.492 41.492 0 0 0 363.65 144.92" fill="none" stroke="black" stroke-width="0.5" />
    </g>
    <g>
      <path d="M 363.65 144.92 A 34.049 34.049 0 0 0 370.01 146.26" fill="none" stroke="black" stroke-width="0.5" />
    </g>
    <g>
      <path d="M 378.77 148.35 A 65.309 65.309 0 0 0 370.01 146.26" fill="none" stroke="black" stroke-width="0.5" />
    </g>
    <g>
      <path d="M 385.97 149.21 A 76.992 76.992 0 0 0 378.77 148.35" fill="none" stroke="black" stroke-width="0.5" />
    </g>
    <g>
      <path d="M 386.24 148.88 A 0.261 0.261 0 0 0 385.97 149.21" fill="none" stroke="black" stroke-width="0.5" />
    </g>
    <g>
      <path d="M386.24 148.88L384.11 140.35" fill="none" stroke="black" stroke-width="0.5" />
    </g>
    <g>
      <path d="M384.11 140.35L378.23 116.87" fill="none" stroke="black" stroke-width="0.5" />
    </g>
    <g>
      <path d="M 378.23 116.87 A 19.255 19.255 0 0 0 377.68 111.3" fill="none" stroke="black" stroke-width="0.5" />
    </g>
    <g>
      <path d="M 377.68 111.3 A 187.333 187.333 0 0 0 379.3 93.92" fill="none" stroke="black" stroke-width="0.5" />
    </g>
    <g>
      <path d="M 379.3 93.92 A 90.178 90.178 0 0 0 380.46 87.42" fill="none" stroke="black" stroke-width="0.5" />
    </g>
    <g>
      <path d="M 382.55 76.62 A 250.817 250.817 0 0 0 380.46 87.42" fill="none" stroke="black" stroke-width="0.5" />
    </g>
    <g>
      <path d="M 383.37 66.86 A 58.004 58.004 0 0 0 382.55 76.62" fill="none" stroke="black" stroke-width="0.5" />
    </g>
    <g>
      <path d="M 382.55 51.68 A 139.858 139.858 0 0 0 383.37 66.86" fill="none" stroke="black" stroke-width="0.5" />
    </g>
    <g>
      <path d="M 224.44 42.69 A 28.21 28.21 0 0 0 234.26 43.7" fill="none" stroke="black" stroke-width="0.5" />
    </g>
    <g>
      <path d="M 234.26 43.7 A 28.21 28.21 0 0 0 243.13 48.03" fill="none" stroke="black" stroke-width="0.5" />
    </g>
    <g>
      <path d="M 243.13 48.03 A 28.21 28.21 0 0 0 249.29 54.17" fill="none" stroke="black" stroke-width="0.5" />
    </g>
    <g>
      <path d="M 249.29 54.17 A 28.21 28.21 0 0 0 253.28 61.9" fill="none" stroke="black" stroke-width="0.5" />
    </g>
    <g>
      <path d="M 247.76 44.31 A 66.547 66.547 0 0 0 254.52 47.33" fill="none" stroke="black" stroke-width="0.5" />
    </g>
    <g>
      <path d="M 254.52 47.33 A 21.834 21.834 0 0 0 258.08 49.63" fill="none" stroke="black" stroke-width="0.5" />
    </g>
    <g>
      <path d="M 258.08 49.63 A 111.37 111.37 0 0 0 266.02 56.56" fill="none" stroke="black" stroke-width="0.5" />
    </g>
    <g>
      <path d="M 266.02 56.56 A 64.038 64.038 0 0 0 271.43 62.44" fill="none" stroke="black" stroke-width="0.5" />
    </g>
    <g>
      <path d="M 271.43 62.44 A 14.024 14.024 0 0 0 272.89 64.62" fill="none" stroke="black" stroke-width="0.5" />
    </g>
    <g>
      <path d="M 272.89 64.62 A 56.925 56.925 0 0 0 275.17 69.37" fill="none" stroke="black" stroke-width="0.5" />
    </g>
    <g>
      <path d="M612.9 584.43L612.9 15.71Z" fill="none" stroke="black" stroke-width="0.5" />
    </g>
    <g>
      <path d="M612.9 15.71L186.36 15.71" fill="none" stroke="black" stroke-width="0.5" />
    </g>
    <g>
      <path d="M186.36 15.71L186.36 584.43Z" fill="none" stroke="black" stroke-width="0.5" />
    </g>
    <g>
      <path d="M186.36 584.43L612.9 584.43" fill="none" stroke="black" stroke-width="0.5" />
    </g>
    <g>
      <path d="M612.9 15.71L612.82 15.57" fill="none" stroke="black" stroke-width="0.5" />
      <path d="M612.9 15.57L612.82 15.71" fill="none" stroke="black" stroke-width="0.5" />
      <path d="M612.72 15.59L612.73 15.57" fill="none" stroke="black" stroke-width="0.5" />
      <path d="M612.73 15.57L612.74 15.57" fill="none" stroke="black" stroke-width="0.5" />
      <path d="M612.74 15.57L612.77 15.57" fill="none" stroke="black" stroke-width="0.5" />
      <path d="M612.77 15.57L612.78 15.57" fill="none" stroke="black" stroke-width="0.5" />
      <path d="M612.78 15.57L612.79 15.59" fill="none" stroke="black" stroke-width="0.5" />
      <path d="M612.79 15.59L612.79 15.6Z" fill="none" stroke="black" stroke-width="0.5" />
      <path d="M612.79 15.6L612.79 15.61Z" fill="none" stroke="black" stroke-width="0.5" />
      <path d="M612.79 15.61L612.78 15.62Z" fill="none" stroke="black" stroke-width="0.5" />
      <path d="M612.78 15.62L612.77 15.63" fill="none" stroke="black" stroke-width="0.5" />
      <path d="M612.77 15.63L612.74 15.64" fill="none" stroke="black" stroke-width="0.5" />
      <path d="M612.74 15.64L612.73 15.65" fill="none" stroke="black" stroke-width="0.5" />
      <path d="M612.73 15.65L612.72 15.65Z" fill="none" stroke="black" stroke-width="0.5" />
      <path d="M612.72 15.65L612.72 15.67Z" fill="none" stroke="black" stroke-width="0.5" />
      <path d="M612.72 15.67L612.72 15.69Z" fill="none" stroke="black" stroke-width="0.5" />
      <path d="M612.72 15.69L612.73 15.7" fill="none" stroke="black" stroke-width="0.5" />
      <path d="M612.73 15.7L612.74 15.71" fill="none" stroke="black" stroke-width="0.5" />
      <path d="M612.74 15.71L612.77 15.71" fill="none" stroke="black" stroke-width="0.5" />
      <path d="M612.77 15.71L612.78 15.7" fill="none" stroke="black" stroke-width="0.5" />
      <path d="M612.78 15.7L612.79 15.69" fill="none" stroke="black" stroke-width="0.5" />
      <path d="M612.68 15.71L612.68 15.57Z" fill="none" stroke="black" stroke-width="0.5" />
      <path d="M612.64 15.57L612.56 15.57" fill="none" stroke="black" stroke-width="0.5" />
      <path d="M612.56 15.57L612.64 15.71" fill="none" stroke="black" stroke-width="0.5" />
      <path d="M612.64 15.71L612.56 15.71" fill="none" stroke="black" stroke-width="0.5" />
      <path d="M612.53 15.71L612.53 15.57Z" fill="none" stroke="black" stroke-width="0.5" />
      <path d="M612.53 15.57L612.46 15.57" fill="none" stroke="black" stroke-width="0.5" />
      <path d="M612.53 15.63L612.49 15.63" fill="none" stroke="black" stroke-width="0.5" />
      <path d="M612.53 15.71L612.46 15.71" fill="none" stroke="black" stroke-width="0.5" />
    </g>
    <g>
      <path d="M612.9 15.57L612.86 15.63" fill="none" stroke="black" stroke-width="0.5" />
      <path d="M612.86 15.63L612.81 15.57" fill="none" stroke="black" stroke-width="0.5" />
      <path d="M612.86 15.63L612.86 15.71Z" fill="none" stroke="black" stroke-width="0.5" />
      <path d="M612.72 15.59L612.73 15.57" fill="none" stroke="black" stroke-width="0.5" />
      <path d="M612.73 15.57L612.74 15.57" fill="none" stroke="black" stroke-width="0.5" />
      <path d="M612.74 15.57L612.77 15.57" fill="none" stroke="black" stroke-width="0.5" />
      <path d="M612.77 15.57L612.78 15.57" fill="none" stroke="black" stroke-width="0.5" />
      <path d="M612.78 15.57L612.79 15.59" fill="none" stroke="black" stroke-width="0.5" />
      <path d="M612.79 15.59L612.79 15.6Z" fill="none" stroke="black" stroke-width="0.5" />
      <path d="M612.79 15.6L612.79 15.61Z" fill="none" stroke="black" stroke-width="0.5" />
      <path d="M612.79 15.61L612.78 15.62Z" fill="none" stroke="black" stroke-width="0.5" />
      <path d="M612.78 15.62L612.77 15.63" fill="none" stroke="black" stroke-width="0.5" />
      <path d="M612.77 15.63L612.74 15.64" fill="none" stroke="black" stroke-width="0.5" />
      <path d="M612.74 15.64L612.73 15.65" fill="none" stroke="black" stroke-width="0.5" />
      <path d="M612.73 15.65L612.72 15.65Z" fill="none" stroke="black" stroke-width="0.5" />
      <path d="M612.72 15.65L612.72 15.67Z" fill="none" stroke="black" stroke-width="0.5" />
      <path d="M612.72 15.67L612.72 15.69Z" fill="none" stroke="black" stroke-width="0.5" />
      <path d="M612.72 15.69L612.73 15.7" fill="none" stroke="black" stroke-width="0.5" />
      <path d="M612.73 15.7L612.74 15.71" fill="none" stroke="black" stroke-width="0.5" />
      <path d="M612.74 15.71L612.77 15.71" fill="none" stroke="black" stroke-width="0.5" />
      <path d="M612.77 15.71L612.78 15.7" fill="none" stroke="black" stroke-width="0.5" />
      <path d="M612.78 15.7L612.79 15.69" fill="none" stroke="black" stroke-width="0.5" />
      <path d="M612.68 15.71L612.68 15.57Z" fill="none" stroke="black" stroke-width="0.5" />
      <path d="M612.64 15.57L612.56 15.57" fill="none" stroke="black" stroke-width="0.5" />
      <path d="M612.56 15.57L612.64 15.71" fill="none" stroke="black" stroke-width="0.5" />
      <path d="M612.64 15.71L612.56 15.71" fill="none" stroke="black" stroke-width="0.5" />
      <path d="M612.53 15.71L612.53 15.57Z" fill="none" stroke="black" stroke-width="0.5" />
      <path d="M612.53 15.57L612.46 15.57" fill="none" stroke="black" stroke-width="0.5" />
      <path d="M612.53 15.63L612.49 15.63" fill="none" stroke="black" stroke-width="0.5" />
      <path d="M612.53 15.71L612.46 15.71" fill="none" stroke="black" stroke-width="0.5" />
    </g>
    <g>
      <path d="M172.88 15.71L172.88 157.89Z" fill="none" stroke="black" stroke-width="0.5" />
      <path d="M172.88 157.89L2.26 157.89" fill="none" stroke="black" stroke-width="0.5" />
      <path d="M2.26 157.89L2.26 15.71Z" fill="none" stroke="black" stroke-width="0.5" />
      <path d="M2.26 15.71L172.88 15.71" fill="none" stroke="black" stroke-width="0.5" />
    </g>
  </g>
</svg>