<?xml version="1.0" encoding="UTF-8"?>
<svg xmlns="http://www.w3.org/2000/svg" width="799.000" height="599.000" viewBox="0.0 0.0 799.000 599.000" version="1.1">
  <g id="freecads.com" display="visible">
    <g>
      <path d="M697.31 597.31L101.69 597.31" fill="none" stroke="black" stroke-width="0.5" />
    </g>
    <g>
      <path d="M101.69 597.31L101.69 1.69Z" fill="none" stroke="black" stroke-width="0.5" />
    </g>
    <g>
      <path d="M101.69 1.69L697.31 1.69" fill="none" stroke="black" stroke-width="0.5" />
    </g>
    <g>
      <path d="M697.31 1.69L697.31 597.31Z" fill="none" stroke="black" stroke-width="0.5" />
    </g>
    <g>
      <path d="M697.31 597.31L101.69 597.31" fill="none" stroke="black" stroke-width="0.5" />
    </g>
    <g>
      <path d="M101.69 597.31L101.69 1.69Z" fill="none" stroke="black" stroke-width="0.5" />
    </g>
    <g>
      <path d="M101.69 1.69L697.31 1.69" fill="none" stroke="black" stroke-width="0.5" />
    </g>
    <g>
      <path d="M697.31 1.69L697.31 597.31Z" fill="none" stroke="black" stroke-width="0.5" />
    </g>
    <g>
      <path d="M101.69 89.28L697.31 89.28" fill="none" stroke="black" stroke-width="0.5" />
    </g>
    <g>
      <path d="M101.69 141.84L697.31 141.84" fill="none" stroke="black" stroke-width="0.5" />
    </g>
    <g>
      <path d="M697.31 527.23L627.23 527.23" fill="none" stroke="black" stroke-width="0.5" />
    </g>
    <g>
      <path d="M627.23 527.23L627.23 141.84Z" fill="none" stroke="black" stroke-width="0.5" />
    </g>
    <g>
      <path d="M101.69 527.23L171.77 527.23" fill="none" stroke="black" stroke-width="0.5" />
    </g>
    <g>
      <path d="M171.77 527.23L171.77 141.84Z" fill="none" stroke="black" stroke-width="0.5" />
    </g>
    <g>
      <path d="M101.69 541.25L185.78 541.25" fill="none" stroke="black" stroke-width="0.5" />
    </g>
    <g>
      <path d="M185.78 541.25L185.78 155.85Z" fill="none" stroke="black" stroke-width="0.5" />
    </g>
    <g>
      <path d="M185.78 155.85L613.22 155.85" fill="none" stroke="black" stroke-width="0.5" />
    </g>
    <g>
      <path d="M613.22 155.85L613.22 541.25Z" fill="none" stroke="black" stroke-width="0.5" />
    </g>
    <g>
      <path d="M613.22 541.25L697.31 541.25" fill="none" stroke="black" stroke-width="0.5" />
    </g>
  </g>
</svg>